<svg width="110" height="42" viewBox="0 0 110 42" fill="none" xmlns="http://www.w3.org/2000/svg">
<path fill-rule="evenodd" clip-rule="evenodd" d="M6.07208 41.4467C3.12181 41.4414 0.697428 39.017 0.692169 36.0667V5.84868C0.697428 2.89839 3.12181 0.474009 6.07208 0.46875H104.42C107.37 0.474009 109.794 2.89839 109.8 5.84868V36.0615C109.794 39.0117 107.37 41.4361 104.42 41.4414H6.07208V41.4467Z" fill="#015A75"/>
<path fill-rule="evenodd" clip-rule="evenodd" d="M6.07269 1.3103C3.5852 1.31556 1.53421 3.3613 1.53421 5.84879V36.0616C1.53947 38.5491 3.5852 40.6001 6.07269 40.6001H37.679V1.3103H6.07269ZM80.4817 28.657L81.1548 27.7103C81.6386 28.2152 82.3118 28.4992 83.0112 28.4992C83.6949 28.4992 84.0262 28.1836 84.0262 27.8523C84.0262 27.4264 83.4846 27.3001 82.843 27.1424C81.8858 26.9267 80.6657 26.6638 80.6657 25.3333C80.6657 24.3604 81.5072 23.5557 82.8798 23.5557C83.8106 23.5557 84.5784 23.8345 85.1569 24.3709L84.4627 25.2807C83.9947 24.8652 83.3899 24.6391 82.7641 24.6444C82.2329 24.6444 81.9332 24.881 81.9332 25.2281C81.9332 25.6067 82.4696 25.7277 83.0954 25.875C84.0525 26.1011 85.2831 26.3903 85.2831 27.7156C85.2831 28.7832 84.5206 29.5878 82.9481 29.5878C81.828 29.5773 81.0181 29.2091 80.4817 28.657ZM75.1596 28.657L75.8328 27.7103C76.3166 28.2152 76.9897 28.4992 77.6892 28.4992C78.3728 28.4992 78.7041 28.1836 78.7041 27.8523C78.7041 27.4264 78.1625 27.3001 77.5261 27.1424C76.569 26.9267 75.3489 26.6638 75.3489 25.3333C75.3489 24.3604 76.1904 23.5557 77.563 23.5557C78.4885 23.5557 79.2616 23.8345 79.8401 24.3709L79.1512 25.2807C78.6831 24.8652 78.0783 24.6391 77.4525 24.6444C76.9214 24.6444 76.6216 24.881 76.6216 25.2281C76.6216 25.6067 77.158 25.7277 77.7838 25.875C78.741 26.1011 79.9716 26.3903 79.9716 27.7156C79.9716 28.7832 79.209 29.5878 77.6366 29.5878C76.5112 29.5773 75.7066 29.2091 75.1596 28.657ZM55.7804 28.657L56.4535 27.7103C56.9373 28.2152 57.6105 28.4992 58.3099 28.4992C58.9936 28.4992 59.3249 28.1836 59.3249 27.8523C59.3249 27.4264 58.7832 27.3001 58.1416 27.1424C57.1845 26.9267 55.9644 26.6638 55.9644 25.3333C55.9644 24.3604 56.8059 23.5557 58.1784 23.5557C59.1093 23.5557 59.8771 23.8345 60.4556 24.3709L59.7614 25.2807C59.2933 24.8652 58.6886 24.6391 58.0627 24.6444C57.5316 24.6444 57.2318 24.881 57.2318 25.2281C57.2318 25.6067 57.763 25.7277 58.3941 25.875C59.3512 26.1011 60.5818 26.3903 60.5818 27.7156C60.5818 28.7832 59.8192 29.5878 58.2468 29.5878C57.1319 29.5773 56.3273 29.2091 55.7804 28.657ZM49.6905 27.1529V23.6399H50.9632V27.1056C50.9632 27.9207 51.4417 28.4781 52.3357 28.4781C53.2298 28.4781 53.7031 27.9154 53.7031 27.1056V23.6399H54.9757V27.1424C54.9757 28.5938 54.1185 29.5825 52.341 29.5825C50.5687 29.5878 49.6905 28.5886 49.6905 27.1529ZM67.9759 29.4826L65.1939 25.6751V29.4826H63.9528V23.6399H65.2254L67.9338 27.3001V23.6399H69.1749V29.4774H67.9759V29.4826ZM61.4916 29.4826V23.6399H62.7327V29.4774H61.4916V29.4826ZM70.3897 29.4826V23.6399H74.5285V24.7338H71.6361V25.9696H74.4654V27.0635H71.6361V28.3835H74.5233V29.4774L70.3897 29.4826ZM43.832 29.4826V23.6399H46.9032C48.0181 23.6399 48.5861 24.3499 48.5861 25.1282C48.5861 25.8644 48.1286 26.3535 47.5816 26.4692C48.2022 26.5639 48.6965 27.1687 48.6965 27.8997C48.6965 28.7726 48.1128 29.4774 46.9979 29.4774L43.832 29.4826ZM47.4291 27.7314C47.4291 27.3632 47.1662 27.0477 46.6771 27.0477H45.0784V28.4045H46.6771C47.1451 28.4045 47.4291 28.1468 47.4291 27.7314ZM47.3187 25.3438C47.3187 24.9914 47.0295 24.7075 46.6824 24.7075C46.6666 24.7075 46.6508 24.7075 46.635 24.7075H45.0784V25.9801H46.635C47.0557 25.9801 47.3187 25.7172 47.3187 25.3491V25.3438ZM49.6011 16.535C49.6011 14.7417 50.9579 13.5111 52.7091 13.5111C53.7294 13.4848 54.676 14.0423 55.1493 14.9416L54.0817 15.4675C53.8188 14.9573 53.2929 14.626 52.7144 14.6155C51.6573 14.6155 50.8843 15.4306 50.8843 16.5245C50.8843 17.6184 51.6521 18.4335 52.7144 18.4335C53.2929 18.4283 53.824 18.1022 54.087 17.5868L55.1493 18.118C54.7286 18.8437 53.9923 19.5484 52.7091 19.5484C50.9632 19.5537 49.6011 18.3336 49.6011 16.535ZM55.6752 16.535C55.6752 14.7417 57.032 13.5111 58.7832 13.5111C59.8035 13.4848 60.7501 14.0423 61.2234 14.9416L60.1558 15.4675C59.8876 14.9521 59.3617 14.626 58.7832 14.6155C57.7262 14.6155 56.9531 15.4306 56.9531 16.5245C56.9531 17.6184 57.7209 18.4335 58.7832 18.4335C59.3617 18.4283 59.8929 18.1022 60.1558 17.5868L61.2234 18.1022C60.8027 18.8279 60.0664 19.5326 58.7832 19.5326C57.0373 19.5537 55.6752 18.3336 55.6752 16.535ZM65.3306 19.4538L64.1842 17.387H63.2744V19.4538H62.0333V13.6163H64.7627C65.9775 13.6163 66.7243 14.4104 66.7243 15.499C66.7243 16.5298 66.0774 17.0925 65.4516 17.2345L66.7663 19.4643L65.3306 19.4538ZM47.8604 19.4538L47.5028 18.4651H44.9995L44.6314 19.4538H43.2114L45.4728 13.6163H47.0294L49.2803 19.4538H47.8604ZM92.0146 19.4538V13.6163H94.318C96.1481 13.6163 97.4155 14.7785 97.4155 16.5403C97.4155 18.302 96.1429 19.4538 94.318 19.4538H92.0146ZM86.8503 19.4538V13.6163H90.9891V14.7102H88.0914V15.946H90.9155V17.0399H88.0914V18.3599H90.9786V19.4538H86.8503ZM79.2353 19.4538V13.6163H80.4764V19.4538H79.2353ZM72.8878 19.4538V13.6163H75.1912C77.0213 13.6163 78.2887 14.7785 78.2887 16.5403C78.2887 18.302 77.016 19.4538 75.1912 19.4538H72.8878ZM67.7234 19.4538V13.6163H71.8623V14.7102H68.9646V15.946H71.7939V17.0399H68.9646V18.3599H71.8517V19.4538H67.7234ZM83.0428 19.4538V14.7102H81.3336V13.6163H85.9931V14.7102H84.2944V19.4538H83.0428ZM96.1534 16.5403C96.1534 15.5095 95.517 14.7102 94.3233 14.7102H93.2662V18.3599H94.3233C95.4697 18.3599 96.1429 17.529 96.1429 16.5403H96.1534ZM77.0266 16.5403C77.0266 15.5095 76.3902 14.7102 75.1964 14.7102H74.1394V18.3599H75.1964C76.3429 18.3599 77.016 17.529 77.016 16.5403H77.0266ZM46.2511 14.8574L45.3413 17.3712H47.1609L46.2511 14.8574ZM65.4516 15.4937C65.4516 15.0047 65.0782 14.7049 64.5786 14.7049H63.2744V16.2826H64.5786C65.0782 16.2826 65.4516 15.9881 65.4516 15.4937Z" fill="white"/>
<path fill-rule="evenodd" clip-rule="evenodd" d="M13.7665 34.226C14.5974 34.5941 15.0023 34.836 15.1601 35.8668C15.4283 37.6654 13.7717 38.349 12.2098 38.349H8.54958V30.5026H12.2414C13.5666 30.5026 14.7762 31.1074 14.7762 32.5852C14.7762 33.3215 14.3923 33.8579 13.7665 34.226ZM21.0974 34.226C21.9284 34.5941 22.3333 34.836 22.4911 35.8668C22.7593 37.6654 21.1027 38.349 19.5408 38.349H15.8806V30.5026H19.5724C20.8976 30.5026 22.1072 31.1074 22.1072 32.5852C22.1072 33.3215 21.7233 33.8579 21.0974 34.226ZM29.8221 35.8721C29.6643 34.8413 29.2541 34.5994 28.4284 34.2313C29.0543 33.8631 29.4434 33.3267 29.4434 32.5852C29.4434 31.1074 28.2339 30.5026 26.9086 30.5026H23.2168V38.3543H26.877C28.4337 38.3543 30.0955 37.6706 29.8221 35.8721ZM30.8423 36.4716V36.4558C30.8423 35.4619 31.6574 34.6467 32.6514 34.6467C33.6453 34.6467 34.4605 35.4619 34.4605 36.4505V36.4663C34.4605 37.4603 33.6453 38.2754 32.6514 38.2754C31.6627 38.2807 30.8476 37.4655 30.8423 36.4716ZM34.2974 36.4663V36.4505C34.2922 35.5513 33.5507 34.8097 32.6514 34.8097C31.7468 34.8097 31.0053 35.5513 31.0053 36.4558V36.4716C31.0106 37.3709 31.7521 38.1124 32.6514 38.1124C33.5559 38.1124 34.2974 37.3709 34.2974 36.4663ZM31.9414 35.4829H32.7723C32.9722 35.4724 33.172 35.546 33.3245 35.6775C33.4244 35.7721 33.477 35.9036 33.477 36.0351V36.0456C33.477 36.3454 33.2772 36.5242 32.9985 36.5925L33.5717 37.3393H33.2299L32.6935 36.6399H32.2201V37.3393H31.9467L31.9414 35.4829ZM12.3623 36.866H10.2167V35.0779H12.3623C13.9347 35.0779 13.8401 36.866 12.3623 36.866ZM19.6933 36.866H17.5529V35.0779H19.6933C21.2657 35.0779 21.1711 36.866 19.6933 36.866ZM24.8839 35.0779V36.866H27.0243C28.5021 36.866 28.5967 35.0779 27.0243 35.0779H24.8839ZM32.746 36.3927C33.0037 36.3927 33.1878 36.2717 33.1878 36.0614V36.0509C33.1878 35.8563 33.03 35.7301 32.7618 35.7301H32.2149V36.3927H32.746ZM10.2167 32.0014H12.1414C13.3405 32.0014 13.3826 33.6738 12.2151 33.6738H10.2167V32.0014ZM24.8892 32.0014H26.7982C27.9972 32.0014 28.0393 33.6738 26.8718 33.6738H24.8786L24.8892 32.0014ZM17.5582 32.0014H19.4777C20.6767 32.0014 20.7188 33.6738 19.5513 33.6738H17.5529L17.5582 32.0014ZM12.0941 26.9897H15.6649L16.3013 29.1563H22.1387L22.7751 26.9897H26.3459L25.8778 25.3962H12.5622L12.0941 26.9897ZM16.417 14.1525L14.6868 16.5401C13.8191 17.7339 14.0873 19.8532 15.2705 20.7052L18.4785 23.0191C19.0307 23.4188 19.0728 23.8132 18.8098 24.2287L19.2778 24.5758L20.9029 22.3249C21.9073 20.9313 21.8179 19.0433 20.3296 17.9547L17.0901 15.5935C16.7062 15.3095 16.6641 14.9151 16.8745 14.4786L16.417 14.1525ZM19.1937 3.61353L16.5011 7.34214C15.239 9.08811 15.6965 12.07 17.4214 13.3426L21.8495 16.5927C22.7488 17.25 22.8645 18.9329 22.2123 19.7901L22.5857 20.0741L25.6412 15.7775C27.0138 13.8475 26.9349 10.9919 24.7787 9.42995L20.0404 5.98532C19.3778 5.50675 19.0465 4.68636 19.5986 3.90277L19.1937 3.61353Z" fill="#015A75"/>
</svg>
