<svg width="70" height="39" viewBox="0 0 70 39" fill="none" xmlns="http://www.w3.org/2000/svg">
<g id="XMLID_1287_">
<g id="XMLID_1347_">
<g id="XMLID_1348_">
<path id="XMLID_93_" d="M62.2222 6.2222C63.0814 6.2222 63.7778 5.52575 63.7778 4.66664C63.7778 3.80753 63.0814 3.11108 62.2222 3.11108C61.3631 3.11108 60.6667 3.80753 60.6667 4.66664C60.6667 5.52575 61.3631 6.2222 62.2222 6.2222Z" fill="#E22135"/>
</g>
</g>
<g id="XMLID_1344_">
<g id="XMLID_1345_">
<path id="XMLID_92_" d="M68.4445 29.5556C69.3036 29.5556 70 28.8591 70 28C70 27.1409 69.3036 26.4445 68.4445 26.4445C67.5854 26.4445 66.8889 27.1409 66.8889 28C66.8889 28.8591 67.5854 29.5556 68.4445 29.5556Z" fill="#E22135"/>
</g>
</g>
<g id="XMLID_1341_">
<g id="XMLID_1342_">
<path id="XMLID_91_" d="M31.1111 10.8889C31.9702 10.8889 32.6667 10.1924 32.6667 9.33333C32.6667 8.47422 31.9702 7.77777 31.1111 7.77777C30.252 7.77777 29.5555 8.47422 29.5555 9.33333C29.5555 10.1924 30.252 10.8889 31.1111 10.8889Z" fill="#E22135"/>
</g>
</g>
<g id="XMLID_1338_">
<g id="XMLID_1339_">
<path id="XMLID_90_" d="M1.55556 3.11111C2.41467 3.11111 3.11111 2.41467 3.11111 1.55556C3.11111 0.696446 2.41467 0 1.55556 0C0.696446 0 0 0.696446 0 1.55556C0 2.41467 0.696446 3.11111 1.55556 3.11111Z" fill="#E22135"/>
</g>
</g>
<g id="XMLID_1335_">
<g id="XMLID_1336_">
<path id="XMLID_89_" d="M1.55556 32.6667C2.41467 32.6667 3.11111 31.9702 3.11111 31.1111C3.11111 30.252 2.41467 29.5555 1.55556 29.5555C0.696446 29.5555 0 30.252 0 31.1111C0 31.9702 0.696446 32.6667 1.55556 32.6667Z" fill="#E22135"/>
</g>
</g>
<g id="XMLID_1306_">
<g id="XMLID_1307_">
<path id="XMLID_1308_" d="M46.6666 38.8889H37.3333C36.4742 38.8889 35.7778 38.1923 35.7778 37.3333V30.1781C32.8784 28.1532 31.1111 24.809 31.1111 21.2446C31.1111 16.6389 34.0284 12.5129 38.3704 10.9779C38.8467 10.8094 39.3748 10.8828 39.787 11.1744C40.1993 11.4659 40.4444 11.9395 40.4444 12.4445V19.689C40.4444 20.5467 41.1422 21.2446 42 21.2446C42.8577 21.2446 43.5555 20.5467 43.5555 19.689V12.4445C43.5555 11.9395 43.8007 11.4659 44.2131 11.1744C44.6253 10.8828 45.1536 10.8094 45.6297 10.9779C49.9717 12.5129 52.889 16.6389 52.889 21.2446C52.889 24.809 51.1218 28.1532 48.2224 30.1781V37.3333C48.2222 38.1925 47.5258 38.8889 46.6666 38.8889ZM38.8889 35.7778H45.1111V29.3261C45.1111 28.771 45.407 28.2579 45.8875 27.9798C48.2871 26.5912 49.7778 24.0103 49.7778 21.2446C49.7778 18.758 48.5873 16.467 46.6666 15.0231V19.689C46.6666 22.2622 44.5732 24.3557 42 24.3557C39.4268 24.3557 37.3333 22.2622 37.3333 19.689V15.0231C35.4127 16.467 34.2222 18.7578 34.2222 21.2446C34.2222 24.0103 35.7129 26.5912 38.1125 27.9798C38.593 28.2579 38.8889 28.771 38.8889 29.3261V35.7778Z" fill="#E22135"/>
</g>
</g>
<g id="XMLID_1301_">
<g id="XMLID_1302_">
<path id="XMLID_1303_" d="M26.4444 24.8889H4.66664C3.80751 24.8889 3.11108 24.1923 3.11108 23.3334V12.4445C3.11108 11.5855 3.80751 10.8889 4.66664 10.8889H15.5555C22.4174 10.8889 28 16.4715 28 23.3334C28 24.1925 27.3036 24.8889 26.4444 24.8889ZM6.2222 21.7778H24.7593C24.0167 17.3692 20.1721 14 15.5555 14H6.2222V21.7778Z" fill="#E22135"/>
</g>
</g>
<g id="XMLID_1296_">
<g id="XMLID_1297_">
<path id="XMLID_1298_" d="M20.2222 38.8889H10.8889C10.0297 38.8889 9.33331 38.1923 9.33331 37.3333V23.3333C9.33331 22.4743 10.0297 21.7778 10.8889 21.7778H20.2222C21.0813 21.7778 21.7778 22.4743 21.7778 23.3333V37.3333C21.7778 38.1925 21.0813 38.8889 20.2222 38.8889ZM12.4444 35.7778H18.6666V24.8889H12.4444V35.7778Z" fill="#E22135"/>
</g>
</g>
<g id="XMLID_1291_">
<g id="XMLID_1292_">
<path id="XMLID_1293_" d="M60.6667 23.3334C58.0935 23.3334 56 21.2399 56 18.6667V12.4445C56 11.5855 56.6964 10.8889 57.5556 10.8889H63.7778C64.6369 10.8889 65.3333 11.5855 65.3333 12.4445V18.6667C65.3333 21.2399 63.2399 23.3334 60.6667 23.3334ZM59.1111 14V18.6667C59.1111 19.5244 59.8089 20.2222 60.6667 20.2222C61.5244 20.2222 62.2222 19.5244 62.2222 18.6667V14H59.1111Z" fill="#E22135"/>
</g>
</g>
<g id="XMLID_1288_">
<g id="XMLID_1289_">
<path id="XMLID_71_" d="M60.6666 38.8889C59.8075 38.8889 59.1111 38.1923 59.1111 37.3333V21.7778C59.1111 20.9188 59.8075 20.2222 60.6666 20.2222C61.5258 20.2222 62.2222 20.9188 62.2222 21.7778V37.3333C62.2222 38.1925 61.5258 38.8889 60.6666 38.8889Z" fill="#E22135"/>
</g>
</g>
</g>
</svg>
