<svg width="115" height="37" viewBox="0 0 115 37" fill="none" xmlns="http://www.w3.org/2000/svg">
<g clip-path="url(#clip0_3_414)">
<path d="M75.8062 15.1075L76.0196 15.5965C75.2329 15.5965 74.4503 15.6348 73.6677 15.5965C73.2695 15.5525 72.8751 15.4786 72.4876 15.3754L72.2867 14.8907L72.4248 14.7844L72.2197 14.6908L71.5794 13.3259H66.3818L65.6536 14.6653C65.2016 14.7929 65.4151 15.1501 65.4025 15.4307C65.4081 15.4892 65.3933 15.5479 65.3607 15.5965H61.9081C63.6365 11.6208 65.3523 7.64508 67.1058 3.69063C67.4196 2.98052 67.5954 2.35121 67.2062 1.60284C67.0688 1.20463 66.9925 0.787279 66.9802 0.365479L69.5163 0.365479C70.0525 1.00858 70.4617 1.75064 70.7215 2.55106C72.2741 6.37796 73.8519 10.2049 75.417 14.0317C75.4794 14.2138 75.5297 14.3999 75.5677 14.5888C75.5342 14.8226 75.4421 15.0608 75.8062 15.1075ZM68.9932 6.60332L67.5159 10.1453C68.8132 10.3409 69.4577 10.3239 70.3198 10.056C69.9013 8.93347 69.4828 7.83218 68.9932 6.59056V6.60332Z" fill="#C01A1A"/>
<path d="M15.1709 36.3893C12.9487 35.4155 10.7223 34.4631 8.50852 33.4638C6.2947 32.4646 4.10599 31.4058 1.8838 30.4023C1.31549 30.1956 0.731958 30.0349 0.138687 29.9218L0.138687 1.85791C0.534616 1.88028 0.926543 1.95022 1.30628 2.06626C2.32321 2.49147 3.31923 2.99322 4.32361 3.48647C7.75105 5.18731 11.438 6.31837 14.606 8.61876C14.7357 8.7123 15.0244 8.61876 15.2128 8.59325L15.15 15.201L6.46628 11.4209V25.708L15.2044 29.7262L15.1709 36.3893Z" fill="#C01919"/>
<path d="M77.6057 9.03552C76.4088 9.03552 76.3795 8.99725 76.3754 7.81092V6.48001L77.6894 6.35244C77.7145 5.92723 77.748 5.50202 77.7564 5.11508C77.7564 4.33269 77.7564 3.52905 78.1958 2.85721C78.5604 2.27382 79.0074 1.74803 79.5224 1.29669C80.1583 0.773457 80.9306 0.449861 81.7446 0.365479C81.8995 0.365479 83.8371 0.790689 84.4313 0.926757C83.9794 1.93025 83.5943 2.80194 83.1759 3.70763C82.477 3.6396 81.7781 3.21439 81.1796 3.82669C80.5812 4.439 80.9495 5.30217 80.7612 6.13559H82.7197C82.9541 7.12208 82.7992 8.03203 82.8536 9.01851H80.849C80.8239 11.2636 80.803 13.4365 80.7821 15.605H78.041V9.65208C78.0619 9.2949 78.0493 9.01851 77.6057 9.03552Z" fill="#C01919"/>
<path d="M15.2044 8.59321L29.8516 1.90039V27.7192C29.9064 28.3133 30.0142 28.9011 30.1739 29.4753C28.8598 30.1726 27.5667 30.9253 26.2233 31.5588C22.9925 33.1066 19.7241 34.5778 16.4599 36.0831C16.0418 36.23 15.6119 36.3396 15.1751 36.4105L15.2044 29.7262L24.2773 25.6356C24.4614 25.3252 24.8004 25.0191 24.8004 24.7044C24.8395 20.6252 24.8395 16.5446 24.8004 12.4626C24.8004 12.1905 24.52 11.9184 24.3819 11.642C23.5449 11.8801 22.6828 12.0672 21.871 12.3691C19.6111 13.279 17.3722 14.2528 15.1249 15.201L15.2044 8.59321Z" fill="#75170E"/>
<path d="M87.0595 11.4209C87.3859 12.4286 88.5953 13.2237 89.5955 13.4831C90.5957 13.7425 91.2695 12.8283 92.2613 12.4371C93.5628 12.9559 93.8976 13.1727 94.3956 13.8488C93.4541 14.938 92.1725 15.6652 90.766 15.9083C89.3594 16.1514 87.9133 15.8956 86.6703 15.184C84.4523 13.9551 83.3642 11.1445 84.0756 8.54643C84.4332 7.28151 85.2061 6.17908 86.266 5.4225C87.3258 4.66592 88.6086 4.3008 89.901 4.38787C91.1662 4.36496 92.3948 4.81946 93.3494 5.6635C94.3538 6.56495 95.1615 7.61947 95.333 9.06519C95.2466 9.2983 95.1808 9.53879 95.1364 9.7838C95.0987 10.1495 95.1112 10.5237 95.1029 10.9319H88.4405C88.0987 10.9063 87.7553 10.9149 87.4152 10.9574C87.2603 10.9701 87.185 11.2465 87.0595 11.4209ZM87.3231 9.06519C88.9217 8.87384 90.4744 9.37985 91.9726 8.69951C91.2988 7.42388 90.2735 6.84984 89.1435 7.08796C87.9215 7.33883 87.3733 7.88736 87.3231 9.05243V9.06519Z" fill="#C01919"/>
<path d="M107.988 8.80164L108.055 9.27362C107.486 9.69883 108.097 10.4004 107.607 10.9149H100.075C99.7398 10.9149 99.744 11.1701 99.7481 11.4082L99.5807 11.4932L99.7858 11.6123C100.497 12.9602 101.744 13.3131 103.134 13.4705C104.084 13.2451 104.23 12.7391 104.808 12.3436L106.712 13.3599C106.77 13.4294 106.814 13.5098 106.841 13.5966C106.869 13.6834 106.879 13.7748 106.872 13.8656C106.864 13.9565 106.839 14.045 106.798 14.126C106.757 14.207 106.701 14.279 106.632 14.3379L106.565 14.3889C105.339 15.3839 104.021 16.0897 102.38 15.8899C101.739 15.8566 101.1 15.7827 100.468 15.6688C98.1579 15.0607 96.6094 12.9474 96.4923 10.3834C96.4468 9.52214 96.6037 8.66222 96.9501 7.87477C97.2965 7.08732 97.8224 6.39496 98.4843 5.85493C99.0429 5.38218 99.6848 5.02146 100.376 4.7919C101.202 4.51926 102.069 4.39691 102.937 4.43047C103.739 4.49946 104.515 4.74932 105.209 5.16184C105.902 5.6438 106.539 6.20288 107.109 6.82866C107.222 6.98174 107.306 7.15476 107.356 7.33891L107.599 7.86618C107.691 8.18508 107.306 8.70809 107.988 8.80164ZM104.682 8.69108C103.653 6.68409 101.334 6.46298 100.133 8.14681C100.077 8.20194 100.032 8.268 100.002 8.34105C99.9712 8.41411 99.9555 8.49266 99.9555 8.57202C99.9555 8.65139 99.9712 8.72994 100.002 8.803C100.032 8.87605 100.077 8.94211 100.133 8.99724L100.183 9.04401C101.615 8.86967 103.146 9.34591 104.682 8.69108Z" fill="#C01919"/>
<path d="M56.5305 13.2535C57.0951 13.2139 57.6412 13.0318 58.1191 12.7237C58.597 12.4155 58.9917 11.9911 59.2674 11.4889L61.724 12.9389C60.6233 15.4901 57.426 16.4001 55.2541 15.8813C52.7431 15.2775 50.9311 13.5554 50.6507 10.3536C50.5748 9.14073 50.9149 7.93862 51.6132 6.95191C52.3365 5.83592 53.4196 5.01056 54.6766 4.6175C55.9214 4.18623 57.2696 4.17282 58.5225 4.57923C60.0793 5.115 60.7489 5.7188 61.77 7.30058C61.2218 7.6365 60.6819 7.98942 60.1253 8.30408C59.4474 8.68677 59.326 8.67401 58.761 8.06171C58.3854 7.61201 57.8751 7.29987 57.3081 7.17314C56.7412 7.04642 56.149 7.1121 55.6224 7.36011C55.0556 7.55886 54.5692 7.94201 54.2386 8.45016C53.908 8.95831 53.7515 9.56309 53.7935 10.1708C53.7827 10.7781 53.9587 11.3738 54.2971 11.8746C54.6354 12.3754 55.1192 12.7564 55.6809 12.9644C55.9577 13.0792 56.2415 13.1758 56.5305 13.2535Z" fill="#C01A1A"/>
<path d="M87.0595 11.421C87.1725 11.2594 87.2603 10.9957 87.4026 10.9532C87.7428 10.9107 88.0862 10.9022 88.4279 10.9277H95.1029C95.1029 10.5025 95.1029 10.1453 95.1364 9.77964C95.1808 9.53464 95.2466 9.29415 95.3331 9.06104L95.6218 11.1871C95.2033 11.2296 94.9104 11.2806 94.6174 11.2806H88.1852C87.8077 11.3062 87.4319 11.353 87.0595 11.421Z" fill="#BE0D0D"/>
<path d="M99.7607 11.421C99.7607 11.1829 99.7607 10.9362 100.087 10.9277H107.62C108.11 10.4132 107.499 9.72013 108.068 9.29492C108.151 9.89447 108.231 10.4983 108.327 11.1956C107.909 11.2381 107.628 11.2977 107.34 11.2977H101.016C100.595 11.3113 100.176 11.3525 99.7607 11.421Z" fill="#BE0D0D"/>
<path d="M77.6057 9.03564C78.0493 9.03564 78.0619 9.31203 78.0577 9.6522V15.6051H80.7988C80.849 15.9241 80.6775 16.0091 80.4054 16.0048H77.8233C77.7649 15.7385 77.7229 15.4687 77.6978 15.1969V10.1752C77.6852 9.80528 77.635 9.42259 77.6057 9.03564Z" fill="#BF1212"/>
<path d="M30.1864 29.4754C30.0227 28.9016 29.9106 28.3138 29.8516 27.7193V1.90051L30.2952 1.72192C30.312 10.7704 30.3245 19.8203 30.3329 28.8716C30.3094 29.0784 30.2602 29.2813 30.1864 29.4754Z" fill="#6D0000"/>
<path d="M72.4876 15.384C72.875 15.4872 73.2695 15.5611 73.6677 15.6051C74.4503 15.6349 75.2329 15.6051 76.0196 15.6051L76.2331 15.9623H72.655L72.4876 15.384Z" fill="#C83D3D"/>
<path d="M61.9081 15.605H65.3607C65.3607 15.9919 65.1221 16.0302 64.8292 16.0302H61.7407L61.9081 15.605Z" fill="#C83D3D"/>
<path d="M45.997 15.605H49.232C49.1692 15.7283 49.1106 15.9579 49.0437 15.9579C48.0895 15.9834 47.1311 15.9834 46.177 15.9579C46.1142 15.9579 46.0598 15.7283 45.997 15.605Z" fill="#BE0D0D"/>
<path d="M36.0704 15.605H39.297C39.2133 15.7113 39.1296 15.9069 39.0459 15.9069C38.1419 15.9296 37.2352 15.9296 36.3257 15.9069C36.2378 15.8941 36.1541 15.707 36.0704 15.605Z" fill="#BE0303"/>
<path d="M107.988 8.80165C107.306 8.70811 107.674 8.1851 107.607 7.83643L107.988 8.80165Z" fill="#BE0D0D"/>
<path d="M49.232 1.07137L48.9432 0.760966L42.6742 5.46805C42.3143 5.21292 42.0004 4.99606 41.6949 4.76645C40.3516 3.74169 39.0124 2.71268 37.6649 1.69218C37.305 1.42004 36.4763 0.633402 36.0537 0.578125V1.30098C36.0537 3.00183 36.0076 4.70267 36.0118 6.40351C36.0118 9.46928 36.0369 12.5308 36.0537 15.5923H39.2802C39.3053 12.7987 39.3305 10.0093 39.3556 7.05408L42.6491 9.50755L45.997 7.01156V15.6051H49.232C49.232 14.0573 49.2738 12.5095 49.2738 10.9575C49.2655 7.66213 49.2445 4.36675 49.232 1.07137Z" fill="#BE0303"/>
<path d="M65.4234 15.4392C65.4234 15.1586 65.2226 14.8014 65.6745 14.6738L65.4234 15.4392Z" fill="#C83D3D"/>
<path d="M49.232 1.07139L48.9432 0.760986L49.2236 0.556885L49.232 1.07139Z" fill="#BE0D0D"/>
<path d="M75.8062 15.1075C75.4421 15.0608 75.5342 14.8014 75.5677 14.5718L75.8062 15.1075Z" fill="#C83D3D"/>
<path d="M72.2197 14.6992L72.4248 14.7928L72.2867 14.8991C72.2617 14.8729 72.2427 14.8414 72.2311 14.8068C72.2195 14.7722 72.2156 14.7355 72.2197 14.6992Z" fill="#C83D3D"/>
<path d="M99.8067 11.5996L99.6017 11.4805L99.7691 11.3955C99.794 11.4606 99.8068 11.5298 99.8067 11.5996Z" fill="#BE0D0D"/>
<path d="M24.2815 25.6358L24.3861 11.6421C24.5326 11.9185 24.8046 12.1906 24.8046 12.4627C24.8297 16.5448 24.8297 20.6254 24.8046 24.7046C24.8046 25.0277 24.4656 25.3254 24.2815 25.6358Z" fill="#6D0000"/>
<path d="M45.951 30.7722C45.9625 31.352 45.8178 31.924 45.5325 32.4263C45.2508 32.9046 44.8659 33.3117 44.4068 33.6169C43.8936 33.9515 43.3272 34.1932 42.7328 34.3312C42.0672 34.4963 41.3841 34.5777 40.6989 34.5736C40.2436 34.5762 39.7888 34.5421 39.3388 34.4716C38.9643 34.4139 38.5938 34.3316 38.2298 34.2249C37.9546 34.1476 37.6859 34.0481 37.4263 33.9273C37.2633 33.8509 37.109 33.7568 36.966 33.6467C36.8634 33.5575 36.7928 33.4364 36.7651 33.3022C36.7167 33.0876 36.6956 32.8675 36.7023 32.6474C36.7008 32.4869 36.7092 32.3264 36.7274 32.1669C36.7359 32.0591 36.7599 31.9531 36.7986 31.8523C36.8241 31.7836 36.8693 31.7244 36.9283 31.6822C36.9864 31.6469 37.0532 31.6292 37.1208 31.6312C37.2696 31.6506 37.4125 31.7028 37.5393 31.7842C38.0959 32.0814 38.6862 32.3085 39.297 32.4603C39.7579 32.5686 40.23 32.62 40.7031 32.6134C41.0186 32.6158 41.3333 32.5801 41.6405 32.5071C41.8914 32.4478 42.1305 32.3457 42.3478 32.2052C42.5321 32.0854 42.6834 31.9198 42.7874 31.7242C42.8913 31.5285 42.9446 31.3092 42.942 31.0869C42.9468 30.8272 42.8523 30.5757 42.6784 30.3853C42.4814 30.1757 42.2507 30.0017 41.9962 29.8708C41.6885 29.7062 41.3697 29.5641 41.0421 29.4456L39.9373 29.0204C39.5601 28.8725 39.1913 28.7036 38.8324 28.5144C38.4858 28.3338 38.1649 28.1063 37.8783 27.8383C37.595 27.5762 37.3635 27.2616 37.1961 26.9113C37.013 26.5123 36.9228 26.0758 36.9325 25.6357C36.9218 25.1059 37.0519 24.5829 37.3091 24.1219C37.561 23.6866 37.9092 23.3168 38.3261 23.0419C38.7869 22.7389 39.297 22.5215 39.8326 22.3998C40.4356 22.2523 41.0539 22.1795 41.674 22.183C42.0099 22.1845 42.3453 22.2072 42.6784 22.251C42.9953 22.2909 43.3096 22.3491 43.62 22.4254C43.8831 22.4919 44.1417 22.5757 44.3942 22.6762C44.5524 22.7334 44.7028 22.8105 44.842 22.9058C44.8988 22.95 44.9482 23.0031 44.9885 23.0632C45.0204 23.1155 45.043 23.173 45.0554 23.2332C45.0768 23.3225 45.0894 23.4136 45.0931 23.5054C45.0931 23.6117 45.0931 23.7435 45.0931 23.9051C45.0931 24.0667 45.0931 24.2367 45.0931 24.3601C45.0848 24.4637 45.0666 24.5662 45.0387 24.6662C45.0192 24.7335 44.9815 24.794 44.9299 24.8405C44.8735 24.8801 44.8058 24.8995 44.7374 24.8958C44.6035 24.8788 44.4742 24.8354 44.3565 24.7683C44.1808 24.679 43.9673 24.5854 43.7121 24.4834C43.4224 24.3722 43.1261 24.2799 42.8249 24.207C42.4643 24.1205 42.0947 24.0791 41.7242 24.0837C41.4424 24.0768 41.1609 24.1083 40.8872 24.1772C40.6787 24.233 40.4807 24.3235 40.3014 24.4451C40.167 24.5537 40.0601 24.6933 39.9895 24.8523C39.9189 25.0113 39.8867 25.1851 39.8954 25.3593C39.8911 25.6136 39.9824 25.8599 40.1507 26.0481C40.3481 26.262 40.5821 26.4378 40.8412 26.5669C41.1581 26.7303 41.4852 26.8724 41.8205 26.9921C42.1846 27.1239 42.5528 27.2642 42.9337 27.4173C43.3133 27.5658 43.6849 27.7347 44.0469 27.9233C44.3995 28.1027 44.7274 28.3286 45.0219 28.5952C45.3034 28.86 45.5358 29.1739 45.7083 29.5221C45.8842 29.9138 45.9673 30.342 45.951 30.7722Z" fill="#545557"/>
<path d="M56.5263 33.4086C56.529 33.558 56.5192 33.7074 56.497 33.8551C56.487 33.9568 56.4602 34.056 56.4175 34.1485C56.3858 34.2134 56.3382 34.2691 56.2794 34.3101C56.2254 34.3441 56.163 34.3618 56.0994 34.3611H48.9851C48.7693 34.3682 48.5569 34.3057 48.3782 34.1825C48.293 34.1118 48.2259 34.021 48.1829 33.918C48.1399 33.815 48.1222 33.703 48.1313 33.5915V23.1568C48.1214 23.0459 48.1387 22.9341 48.1818 22.8317C48.2249 22.7293 48.2924 22.6394 48.3782 22.57C48.5569 22.4468 48.7693 22.3843 48.9851 22.3914H56.045C56.1049 22.3897 56.1642 22.4044 56.2166 22.4339C56.2767 22.4742 56.3234 22.532 56.3505 22.5998C56.3902 22.6934 56.4169 22.7921 56.43 22.8932C56.4525 23.0451 56.4623 23.1988 56.4593 23.3524C56.4611 23.4947 56.4513 23.6369 56.43 23.7776C56.4169 23.8787 56.3902 23.9774 56.3505 24.071C56.321 24.1361 56.2747 24.1919 56.2166 24.2326C56.1657 24.2666 56.1059 24.2844 56.045 24.2836H51.0064V27.2048H55.2792C55.3427 27.2041 55.4051 27.2218 55.4591 27.2558C55.5174 27.2957 55.5649 27.3498 55.5972 27.4132C55.6397 27.5046 55.6679 27.6021 55.6809 27.7023C55.6987 27.8433 55.7071 27.9854 55.706 28.1275C55.7078 28.2767 55.6994 28.4259 55.6809 28.574C55.6668 28.6712 55.6386 28.7658 55.5972 28.8546C55.5674 28.9186 55.5192 28.9719 55.4591 29.0077C55.404 29.0385 55.3421 29.0546 55.2792 29.0545H51.0064V32.4306H56.0994C56.163 32.43 56.2254 32.4477 56.2794 32.4817C56.3396 32.5211 56.3875 32.5771 56.4175 32.6432C56.4596 32.7345 56.4865 32.8322 56.497 32.9324C56.5205 33.09 56.5303 33.2493 56.5263 33.4086Z" fill="#545557"/>
<path d="M68.5119 32.5497C68.5119 32.7027 68.5119 32.8345 68.5119 32.9409C68.5019 33.0341 68.4851 33.1265 68.4617 33.2172C68.4435 33.2883 68.4138 33.3559 68.3738 33.4171C68.3237 33.4884 68.2646 33.5528 68.198 33.6084C68.0539 33.7168 67.898 33.8081 67.7335 33.8806C67.463 34.0085 67.1831 34.1151 66.8965 34.1995C66.5247 34.311 66.1458 34.3963 65.7624 34.4546C65.3054 34.5249 64.8436 34.559 64.3814 34.5567C63.4928 34.5681 62.6078 34.4404 61.7574 34.1782C61.0225 33.9488 60.3446 33.5616 59.7696 33.0429C59.2107 32.5244 58.7805 31.879 58.5141 31.1592C58.2061 30.3192 58.057 29.4277 58.0747 28.5314C58.0574 27.6051 58.221 26.6845 58.556 25.8228C58.8541 25.0671 59.3128 24.3876 59.8993 23.8328C60.4984 23.2836 61.2041 22.8679 61.9709 22.6125C62.8292 22.3236 63.7283 22.18 64.6325 22.1873C65.012 22.1856 65.3911 22.2126 65.7666 22.2681C66.1081 22.3218 66.4463 22.3956 66.7793 22.4892C67.0656 22.5694 67.3454 22.6717 67.6163 22.7953C67.8001 22.8754 67.9743 22.9767 68.1353 23.0972C68.212 23.1576 68.2809 23.2277 68.3403 23.3056C68.3783 23.3724 68.4079 23.4438 68.4282 23.5182C68.4519 23.6188 68.4673 23.7212 68.4742 23.8243C68.4812 23.966 68.4812 24.1079 68.4742 24.2495C68.477 24.4072 68.47 24.5648 68.4533 24.7215C68.4462 24.83 68.4207 24.9365 68.378 25.0362C68.3499 25.1068 68.3036 25.1685 68.2441 25.2148C68.1935 25.2501 68.1338 25.2693 68.0725 25.2701C67.9214 25.2546 67.7771 25.1988 67.654 25.1085C67.4452 24.9746 67.2286 24.8539 67.0053 24.747C66.7007 24.5962 66.3826 24.4752 66.0554 24.3856C65.6257 24.2686 65.1818 24.2142 64.7371 24.224C64.2222 24.216 63.7111 24.3144 63.2347 24.5132C62.8012 24.7069 62.4164 24.9976 62.109 25.3636C61.7882 25.7462 61.5489 26.1921 61.4059 26.6732C61.0767 27.836 61.0767 29.0695 61.4059 30.2323C61.5534 30.7076 61.8036 31.1435 62.1383 31.5079C62.4616 31.8441 62.8569 32.1002 63.2933 32.2563C63.7807 32.4258 64.2931 32.5092 64.8082 32.5029C65.2537 32.5104 65.6983 32.4589 66.1307 32.3498C66.4571 32.2621 66.7761 32.1484 67.0848 32.0096C67.3527 31.8863 67.5703 31.7758 67.7419 31.678C67.8672 31.5942 68.0109 31.543 68.1604 31.5292C68.2212 31.5268 68.2816 31.5399 68.3361 31.5674C68.3877 31.6033 68.426 31.6557 68.4449 31.7162C68.4796 31.8151 68.5021 31.9179 68.5119 32.0224C68.5035 32.15 68.5119 32.3243 68.5119 32.5497Z" fill="#545557"/>
<path d="M82.1129 29.9007C82.1286 30.5774 82.0031 31.2498 81.7446 31.8737C81.4906 32.4485 81.1046 32.9531 80.6189 33.3449C80.0726 33.771 79.448 34.0819 78.7817 34.2591C77.9628 34.4799 77.1179 34.5858 76.2707 34.5737C75.4643 34.5835 74.66 34.4892 73.877 34.2931C73.2304 34.133 72.6215 33.8439 72.0858 33.4427C71.6015 33.068 71.2162 32.5771 70.9643 32.014C70.696 31.3822 70.5647 30.6991 70.5793 30.0112V22.7231C70.5783 22.6617 70.6008 22.6023 70.642 22.5573C70.708 22.4959 70.7889 22.4533 70.8764 22.434C71.0222 22.3983 71.1705 22.3741 71.32 22.3617C71.5041 22.3617 71.7385 22.3362 72.0189 22.3362C72.2992 22.3362 72.5252 22.3362 72.7094 22.3617C72.8505 22.3745 72.9905 22.3987 73.1279 22.434C73.2149 22.4544 73.2955 22.4968 73.3622 22.5573C73.3854 22.5779 73.4037 22.6035 73.416 22.6321C73.4283 22.6608 73.4342 22.6919 73.4334 22.7231V29.7901C73.4246 30.2124 73.4957 30.6324 73.6426 31.0275C73.7713 31.355 73.975 31.6465 74.2369 31.8779C74.5079 32.1132 74.8244 32.2885 75.1659 32.3924C75.5582 32.5113 75.966 32.5686 76.3754 32.5625C76.7849 32.568 77.1929 32.5092 77.5848 32.3882C77.9198 32.2836 78.2293 32.1083 78.4929 31.8737C78.7461 31.639 78.9424 31.3479 79.0663 31.0232C79.2067 30.6664 79.2764 30.2849 79.2713 29.9007V22.6721C79.2704 22.6107 79.2929 22.5512 79.3341 22.5063C79.3991 22.4457 79.4783 22.4032 79.5643 22.383C79.7099 22.3462 79.8583 22.322 80.0079 22.3107C80.192 22.3107 80.4264 22.2852 80.7026 22.2852C80.9788 22.2852 81.2048 22.2852 81.3847 22.3107C81.5259 22.3236 81.6658 22.3478 81.8032 22.383C81.8891 22.4032 81.9684 22.4457 82.0334 22.5063C82.0746 22.5512 82.0971 22.6107 82.0961 22.6721L82.1129 29.9007Z" fill="#545557"/>
<path d="M95.6762 34.0463C95.6776 34.1064 95.6616 34.1655 95.6302 34.2164C95.5772 34.2779 95.5046 34.3186 95.4251 34.3312C95.2675 34.3713 95.1062 34.3941 94.9438 34.3993C94.7304 34.3993 94.4417 34.3993 94.0776 34.3993C93.7135 34.3993 93.5293 34.3993 93.3452 34.3993C93.2035 34.391 93.0631 34.3668 92.9267 34.327C92.8428 34.3057 92.7661 34.2616 92.7049 34.1994C92.6572 34.1431 92.6203 34.0782 92.5961 34.0081L91.3406 31.3377C91.1858 31.0358 91.0393 30.7637 90.8928 30.5298C90.759 30.312 90.5956 30.1145 90.4074 29.9431C90.2257 29.7843 90.0154 29.6629 89.788 29.5859C89.527 29.5017 89.2542 29.4615 88.9803 29.4668H88.0848V34.0293C88.083 34.0919 88.0575 34.1513 88.0136 34.1952C87.9459 34.2532 87.8656 34.294 87.7793 34.3142C87.6348 34.3504 87.4879 34.3759 87.3398 34.3908C87.1599 34.3908 86.9214 34.4163 86.641 34.4163C86.3606 34.4163 86.1346 34.4163 85.9463 34.3908C85.8052 34.375 85.6654 34.3494 85.5278 34.3142C85.4416 34.2972 85.3618 34.256 85.2976 34.1952C85.2549 34.1509 85.2309 34.0914 85.2307 34.0293V23.1567C85.2207 23.0458 85.2381 22.934 85.2812 22.8316C85.3243 22.7292 85.3918 22.6392 85.4776 22.5699C85.6558 22.4459 85.8685 22.3833 86.0844 22.3913H89.696C90.0684 22.3913 90.3739 22.3913 90.6166 22.3913C90.8594 22.3913 91.0728 22.4168 91.2695 22.4381C91.7928 22.495 92.308 22.612 92.8054 22.7868C93.2257 22.9362 93.6178 23.1577 93.9646 23.4416C94.2746 23.6995 94.5234 24.0251 94.6928 24.3941C94.868 24.7953 94.9537 25.2309 94.9438 25.6697C94.9468 26.0432 94.8859 26.4144 94.7639 26.7667C94.6444 27.0936 94.4639 27.3939 94.2324 27.6512C93.9825 27.9208 93.6914 28.1476 93.3703 28.323C93.0004 28.5268 92.6067 28.6825 92.1985 28.7865C92.4071 28.8725 92.6074 28.9778 92.797 29.1011C92.9885 29.2295 93.1642 29.3808 93.3201 29.5519C93.492 29.7374 93.6475 29.938 93.7846 30.1514C93.9397 30.3974 94.0794 30.6531 94.2031 30.9168L95.3916 33.2725C95.4727 33.4401 95.5454 33.6118 95.6093 33.787C95.6449 33.8693 95.6675 33.9568 95.6762 34.0463ZM91.9684 25.9248C91.9797 25.565 91.8688 25.2122 91.6545 24.9256C91.3835 24.6191 91.0171 24.4164 90.6166 24.3515C90.4702 24.3218 90.3028 24.2963 90.1186 24.275C89.9345 24.2537 89.675 24.2495 89.3486 24.2495H88.0597V27.6512H89.5244C89.8839 27.6581 90.2427 27.6167 90.5915 27.5279C90.8721 27.4547 91.1363 27.3277 91.3699 27.1537C91.5643 27.0143 91.7223 26.829 91.8303 26.6137C91.9269 26.3976 91.9741 26.1621 91.9684 25.9248Z" fill="#545557"/>
<path d="M106.164 33.4086C106.165 33.5579 106.157 33.707 106.139 33.8551C106.125 33.9566 106.097 34.0556 106.055 34.1485C106.023 34.2134 105.976 34.2691 105.917 34.3101C105.863 34.3441 105.8 34.3618 105.737 34.3611H98.6224C98.4066 34.3682 98.1942 34.3057 98.0156 34.1825C97.9303 34.1118 97.8632 34.021 97.8202 33.918C97.7772 33.815 97.7595 33.703 97.7687 33.5915V23.1568C97.7587 23.0459 97.7761 22.9341 97.8192 22.8317C97.8623 22.7293 97.9298 22.6394 98.0156 22.57C98.1942 22.4468 98.4066 22.3843 98.6224 22.3914H105.682C105.744 22.3904 105.804 22.405 105.858 22.4339C105.916 22.4759 105.961 22.5333 105.988 22.5998C106.029 22.6927 106.056 22.7917 106.067 22.8932C106.09 23.0451 106.1 23.1988 106.097 23.3524C106.098 23.4947 106.089 23.6369 106.067 23.7776C106.056 23.879 106.029 23.9781 105.988 24.071C105.958 24.135 105.914 24.1905 105.858 24.2326C105.805 24.266 105.744 24.2837 105.682 24.2836H100.648V27.2048H104.917C104.98 27.2041 105.042 27.2218 105.096 27.2558C105.156 27.2944 105.204 27.3489 105.235 27.4132C105.277 27.5046 105.305 27.6021 105.318 27.7023C105.336 27.8433 105.344 27.9854 105.343 28.1275C105.345 28.2767 105.337 28.4259 105.318 28.574C105.304 28.6712 105.276 28.7658 105.235 28.8546C105.206 28.9194 105.157 28.973 105.096 29.0077C105.041 29.0385 104.979 29.0546 104.917 29.0545H100.648V32.4306H105.737C105.8 32.43 105.863 32.4477 105.917 32.4817C105.977 32.5211 106.025 32.5771 106.055 32.6432C106.097 32.7349 106.125 32.8323 106.139 32.9324C106.158 33.0903 106.166 33.2495 106.164 33.4086Z" fill="#545557"/>
</g>
<defs>
<clipPath id="clip0_3_414">
<rect width="113.98" height="36.0451" fill="white" transform="translate(0.138687 0.365479)"/>
</clipPath>
</defs>
</svg>
