<svg width="801" height="633" viewBox="0 0 801 633" fill="none" xmlns="http://www.w3.org/2000/svg">
<path d="M147.197 118.043H162.449C162.703 118.043 162.91 117.835 162.91 117.582V46.5795C162.91 35.4 172.005 26.3097 183.18 26.3097C194.355 26.3097 203.45 35.4046 203.45 46.5795V60.9275C203.45 61.1812 203.658 61.3887 203.911 61.3887H219.163C219.417 61.3887 219.624 61.1812 219.624 60.9275V46.5795C219.624 26.4849 203.275 10.1353 183.18 10.1353C163.086 10.1353 146.736 26.4849 146.736 46.5795V117.582C146.736 117.835 146.943 118.043 147.197 118.043ZM161.988 117.12H147.658V46.5795C147.658 26.9923 163.593 11.0577 183.18 11.0577C202.767 11.0577 218.702 26.9923 218.702 46.5795V60.4663H204.372V46.5795C204.372 34.8927 194.867 25.3873 183.18 25.3873C171.493 25.3873 161.988 34.8927 161.988 46.5795V117.12Z" fill="#363E44"/>
<path d="M108.59 103.294H128.417C128.671 103.294 128.878 103.086 128.878 102.832V69.5474C128.878 69.2937 128.671 69.0862 128.417 69.0862H57.747C57.5164 69.0862 57.3227 69.2568 57.2904 69.4874C57.2581 69.718 57.4011 69.9348 57.6271 69.9948L108.129 83.817V102.837C108.129 103.091 108.336 103.298 108.59 103.298V103.294ZM127.956 102.371H109.051V83.4619C109.051 83.2543 108.913 83.0698 108.71 83.0191L61.1784 70.0132H127.956V102.376V102.371Z" fill="#363E44"/>
<path d="M0.461079 101.859H308.659V492.11H0.461079V101.859Z" fill="#EDEDED"/>
<path d="M0.461121 492.571H308.659C308.913 492.571 309.121 492.364 309.121 492.11V101.859C309.121 101.606 308.913 101.398 308.659 101.398H0.461121C0.207458 101.398 -9.15527e-05 101.606 -9.15527e-05 101.859V492.11C-9.15527e-05 492.364 0.207458 492.571 0.461121 492.571ZM308.198 491.649H0.922302V102.32H308.198V491.649Z" fill="#EDEDED"/>
<path d="M116.453 185.102H193.105C238.543 185.102 275.374 148.27 275.374 102.832H34.1841C34.1841 148.27 71.0158 185.102 116.453 185.102Z" fill="white"/>
<path d="M79.096 254.554H125.318C130.059 254.554 134.509 252.705 137.858 249.352C141.206 245.999 143.046 241.539 143.032 236.798L142.922 182.487H160.208L160.318 236.761C160.337 246.123 156.707 254.932 150.089 261.56C143.475 268.187 134.675 271.835 125.313 271.835H79.0914C69.3231 271.835 61.372 279.782 61.372 289.555V389.276C61.372 399.044 69.3185 406.995 79.0914 406.995H140.265C159.567 406.995 175.271 422.699 175.271 442V491.916H157.985V442C157.985 432.232 150.038 424.281 140.265 424.281H79.0914C59.7901 424.281 44.0861 408.577 44.0861 389.276V289.555C44.0861 270.253 59.7901 254.549 79.0914 254.549L79.096 254.554Z" fill="#F7F1EB"/>
<path d="M162.057 492.382H179.343C179.597 492.382 179.804 492.175 179.804 491.921V442.005C179.804 422.45 163.893 406.539 144.338 406.539H83.1639C73.6493 406.539 65.9103 398.795 65.9103 389.28V289.559C65.9103 280.045 73.6493 272.301 83.1639 272.301H129.386C138.873 272.301 147.788 268.602 154.489 261.887C161.19 255.172 164.871 246.248 164.852 236.761L164.741 182.487C164.741 182.233 164.534 182.025 164.28 182.025H146.994C146.87 182.025 146.755 182.076 146.667 182.159C146.579 182.242 146.533 182.362 146.533 182.487L146.644 236.798C146.653 241.414 144.864 245.754 141.603 249.024C138.342 252.29 134.002 254.093 129.39 254.093H83.1685C63.6136 254.093 47.7021 270.004 47.7021 289.559V389.28C47.7021 408.835 63.6136 424.747 83.1685 424.747H144.342C153.857 424.747 161.601 432.49 161.601 442.005V491.921C161.601 492.175 161.808 492.382 162.062 492.382H162.057ZM178.882 491.46H162.518V442.005C162.518 431.983 154.364 423.824 144.338 423.824H83.1639C64.1163 423.824 48.6199 408.328 48.6199 389.28V289.559C48.6199 270.512 64.1163 255.015 83.1639 255.015H129.386C134.247 255.015 138.817 253.12 142.253 249.679C145.689 246.239 147.575 241.663 147.566 236.802L147.456 182.957H163.819L163.93 236.77C163.948 246.008 160.365 254.702 153.839 261.241C147.313 267.781 138.628 271.383 129.39 271.383H83.1685C73.1466 271.383 64.9926 279.537 64.9926 289.564V389.285C64.9926 399.307 73.1466 407.466 83.1685 407.466H144.342C163.39 407.466 178.886 422.962 178.886 442.01V491.464L178.882 491.46Z" fill="#D4D4D4"/>
<path d="M38.8885 305.595H71.0251V326.294H38.8885V305.595Z" fill="#D4D4D4"/>
<path d="M95.1137 431.914V399.777H115.812V431.914H95.1137Z" fill="#D4D4D4"/>
<path d="M255.501 91.5791C241.276 91.5791 229.743 88.426 229.743 84.5365C229.743 80.647 241.276 77.494 255.501 77.494C269.727 77.494 281.259 80.647 281.259 84.5365C281.259 88.426 269.727 91.5791 255.501 91.5791Z" fill="white"/>
<path d="M225.076 87.7695H284.612V100.688H225.076V87.7695Z" fill="#D4D4D4"/>
<path d="M598.544 305.535H717.76C718.014 305.535 718.221 305.328 718.221 305.074C718.221 304.82 718.014 304.613 717.76 304.613H598.544C598.29 304.613 598.083 304.82 598.083 305.074C598.083 305.328 598.29 305.535 598.544 305.535Z" fill="#F7F1EB"/>
<path d="M680.91 387.901H731.997C732.251 387.901 732.458 387.694 732.458 387.44C732.458 387.187 732.251 386.979 731.997 386.979H680.91C680.656 386.979 680.449 387.187 680.449 387.44C680.449 387.694 680.656 387.901 680.91 387.901Z" fill="#F7F1EB"/>
<path d="M718.655 489.606C718.761 489.606 718.871 489.569 718.959 489.491C721.353 487.411 723.912 485.538 726.569 483.928C726.786 483.795 726.855 483.513 726.726 483.297C726.592 483.08 726.311 483.011 726.094 483.14C723.391 484.782 720.79 486.682 718.355 488.794C718.161 488.96 718.143 489.251 718.309 489.444C718.401 489.551 718.53 489.601 718.655 489.601V489.606Z" fill="white"/>
<path d="M743.61 455.468C743.864 455.468 744.071 455.26 744.071 455.006V429.234C744.071 428.981 743.864 428.773 743.61 428.773C743.357 428.773 743.149 428.981 743.149 429.234V455.006C743.149 455.26 743.357 455.468 743.61 455.468Z" fill="white"/>
<path d="M239.286 520.802L284.534 578.798L353.207 559.994L317.782 506.929C317.782 506.929 247.264 495.883 239.29 520.802H239.286Z" fill="#FF8400"/>
<path d="M466.423 529.993C466.423 529.993 489.967 602.236 515.739 606.788C564.036 615.32 643.838 518.186 643.838 518.186L615.622 449.73L548.835 497.312L466.428 529.998L466.423 529.993Z" fill="#FF8400"/>
<path d="M501.332 346.984L565.951 478.611L586.737 462.007L617.545 555.101C617.545 555.101 564.539 621.357 518.913 619.471C478.11 617.783 427.258 495.006 427.258 495.006L326.983 495.214L348.761 538.696L253.79 553.713C253.79 553.713 191.51 471.287 205.364 440.663C224.481 398.412 363.833 373.526 363.833 373.526L501.332 346.984Z" fill="#1866C2"/>
<path d="M185.648 624.364H394.079L349.688 553.713L266.958 562.591L228.106 570.418C202.791 577.276 185.413 599.353 185.643 624.364H185.648Z" fill="#1866C2"/>
<path d="M709.933 600.889L684.346 416.657L615.018 449.583L636.445 529.979L650.124 567.175C660.774 591.144 685.25 604.943 709.933 600.885V600.889Z" fill="#EDEDED"/>
<path d="M650.366 513C650.366 513 693.049 549.117 665.76 587.239" stroke="#131B20" stroke-width="1.7" stroke-miterlimit="10" stroke-linecap="round"/>
<path d="M650.993 528.628C650.993 528.628 646.124 531.98 642.035 542.925" stroke="#131B20" stroke-width="1.7" stroke-miterlimit="10" stroke-linecap="round"/>
<path d="M656.19 539.834C656.19 539.834 648.823 546.926 646.465 554.334" stroke="#131B20" stroke-width="1.7" stroke-miterlimit="10" stroke-linecap="round"/>
<path d="M661.088 551.025C661.088 551.025 653.354 558.553 651.223 564.453" stroke="#131B20" stroke-width="1.7" stroke-miterlimit="10" stroke-linecap="round"/>
<path d="M666.065 562.998C666.065 562.998 657.807 568.274 655.042 574.147" stroke="#131B20" stroke-width="1.7" stroke-miterlimit="10" stroke-linecap="round"/>
<path d="M326.983 495.675C327.048 495.675 327.117 495.661 327.181 495.629C327.412 495.518 327.509 495.246 327.403 495.016L311.704 461.814C311.593 461.583 311.321 461.486 311.09 461.592C310.86 461.703 310.763 461.975 310.869 462.206L326.568 495.408C326.646 495.574 326.813 495.671 326.988 495.671L326.983 495.675Z" fill="white"/>
<path d="M585.409 528.983C585.464 528.983 585.519 528.974 585.575 528.951C585.81 528.859 585.93 528.591 585.838 528.351L566.379 478.44C566.287 478.205 566.02 478.085 565.784 478.177C565.549 478.27 565.429 478.537 565.522 478.777L584.98 528.688C585.049 528.868 585.224 528.983 585.409 528.983Z" fill="white"/>
<path d="M256.973 276.41L236.412 333.719L299.496 371.469L325.655 305.72L256.973 276.41Z" fill="#FF8400"/>
<path d="M241.361 297.261L327.666 320.797C327.666 320.797 332.08 232.01 299.057 223.649C264.55 214.909 241.361 297.261 241.361 297.261Z" fill="#1866C2"/>
<path d="M465.662 175.915C465.662 175.915 402.62 167.447 353.834 188.035C305.053 208.623 284.534 225.226 284.534 225.226L307.553 291.953L327.629 381.389L515.034 362.166L475.712 268.971L465.662 175.915Z" fill="#EDEDED"/>
<path d="M353.203 395.534L327.86 292.363L429.144 264.216L466.778 376.98L353.203 395.534Z" fill="#1866C2"/>
<path d="M367.288 362.858L428.697 346.024L428.577 345.582L411.868 284.615L350.458 301.449L350.578 301.892L367.288 362.858ZM427.567 345.383L367.938 361.728L351.593 302.095L411.222 285.75L427.567 345.383Z" fill="#363E44"/>
<path d="M410.447 272.956H429.808V173.041L410.447 173.738V272.956Z" fill="#1866C2"/>
<path d="M333.256 305.595L350.984 297.82L311.722 208.328L294.754 217.842L333.256 305.595Z" fill="#1866C2"/>
<path d="M299.496 371.469C239.599 317.291 194.969 281.078 169.681 255.758C158.331 244.389 149.139 230.848 133.975 227.887C127.25 226.573 119.701 226.522 119.235 231.549C118.511 239.399 138.199 243.052 137.434 249.43C136.664 255.841 121.711 253.978 112.483 251.192C106.266 249.315 98.5913 248.042 95.8011 253.456C91.8301 261.154 103.475 266.596 104.2 267.043C99.5921 268.764 96.6681 272.739 96.9448 276.272C97.3184 280.986 103.457 285.708 110.762 283.873C109.905 284.265 103.582 287.216 103.678 290.805C103.771 294.324 110.034 298.258 119.793 298.576C114.863 301.145 112.478 304.479 112.898 306.495C114.074 312.154 124.1 316.12 148.927 315.124C156.763 323.591 186.805 358.587 210.069 385.794C235.186 415.168 282.588 408.845 298.536 373.636C298.859 372.926 299.177 372.207 299.491 371.473L299.496 371.469Z" fill="#FF8400"/>
<path d="M276.781 351.573C276.911 351.573 277.035 351.522 277.127 351.416C277.298 351.227 277.28 350.936 277.09 350.765C270.795 345.171 262.581 338.184 254.635 331.427C248.98 326.617 243.635 322.069 239.59 318.541C239.401 318.375 239.106 318.394 238.94 318.587C238.774 318.781 238.792 319.072 238.986 319.238C243.035 322.775 248.381 327.318 254.04 332.133C261.977 338.885 270.191 345.872 276.477 351.457C276.565 351.536 276.675 351.573 276.781 351.573Z" fill="#363E44"/>
<path d="M168.634 298.954C168.754 298.954 168.869 298.908 168.962 298.82C169.141 298.64 169.141 298.35 168.962 298.17C166.983 296.182 162.708 292.686 156.334 291.612C149.13 290.394 143.448 292.889 140.704 294.48C140.482 294.609 140.409 294.891 140.538 295.112C140.667 295.334 140.948 295.407 141.17 295.278C143.808 293.747 149.268 291.349 156.186 292.52C162.306 293.553 166.411 296.911 168.316 298.82C168.408 298.912 168.523 298.954 168.643 298.954H168.634Z" fill="#363E44"/>
<path d="M127.195 222.224L160.605 314.095L166.268 312.034L196.56 337.469L189.679 376.422L180.427 379.784L166.909 342.616L148.244 349.405L161.758 386.573L152.506 389.94L122.214 364.505L129.091 325.552L134.754 323.49L101.349 231.623L95.6858 233.68L65.394 208.249L72.2752 169.296L81.5269 165.93L95.0447 203.098L113.71 196.313L100.192 159.141L109.448 155.778L139.74 181.214L132.859 220.167L127.195 222.224Z" fill="#1866C2"/>
<path d="M110.55 265.296C120.512 262.653 128.348 265.272 129.303 268.644C130.179 271.734 125.761 277.185 117.92 280.547C117.81 280.594 117.865 280.746 117.98 280.718C127.938 278.477 135.506 280.243 136.47 283.292C137.351 286.073 133.08 290.998 125.89 294.863C125.784 294.919 125.853 295.071 125.964 295.029C133.412 292.29 139.491 292.921 140.644 295.237C141.866 297.69 138.698 305.757 124.303 310.313L110.555 265.296H110.55Z" fill="#FF8400"/>
<path d="M169.686 255.758C157.367 242.24 148.3 230.816 133.979 227.887C129.607 226.993 123.598 226.527 121.269 229.774C116.638 236.221 128.394 240.852 134.584 246.949C140.349 252.631 139.924 259.424 143.3 266.937C145.957 272.845 151.459 280.815 164.29 287.968C166.088 277.231 167.887 266.499 169.686 255.762V255.758Z" fill="#FF8400"/>
<path d="M194.254 496.611H201.061C201.315 496.611 201.522 496.404 201.522 496.15V466.172C201.522 465.918 201.315 465.711 201.061 465.711H194.254C194 465.711 193.792 465.918 193.792 466.172V496.15C193.792 496.404 194 496.611 194.254 496.611ZM200.6 495.689H194.715V466.633H200.6V495.689Z" fill="#363E44"/>
<path d="M125.235 492.11H391.588V632.283H125.235V492.11Z" fill="#D4D4D4"/>
<path d="M125.235 407.281H391.588V469.58H125.235V407.281Z" fill="#D4D4D4"/>
<path d="M125.235 632.745H391.588C391.842 632.745 392.049 632.537 392.049 632.283V492.11C392.049 491.857 391.842 491.649 391.588 491.649H125.235C124.981 491.649 124.774 491.857 124.774 492.11V632.283C124.774 632.537 124.981 632.745 125.235 632.745ZM391.127 631.822H125.696V492.571H391.127V631.822Z" fill="#363E44"/>
<path d="M125.235 470.046H391.588C391.842 470.046 392.049 469.839 392.049 469.585V407.286C392.049 407.032 391.842 406.825 391.588 406.825H125.235C124.981 406.825 124.774 407.032 124.774 407.286V469.585C124.774 469.839 124.981 470.046 125.235 470.046ZM391.127 469.124H125.696V407.747H391.127V469.124Z" fill="#363E44"/>
<path d="M125.235 492.11H391.588V536.529H125.235V492.11Z" fill="#363E44"/>
<path d="M250.239 402.946H264.154V416.861H250.239V402.946Z" fill="#363E44"/>
<path d="M250.239 580.02H264.154C264.407 580.02 264.615 579.812 264.615 579.559V565.644C264.615 565.391 264.407 565.183 264.154 565.183H250.239C249.985 565.183 249.778 565.391 249.778 565.644V579.559C249.778 579.812 249.985 580.02 250.239 580.02ZM263.692 579.098H250.7V566.106H263.692V579.098Z" fill="#363E44"/>
<path d="M101.132 469.917L121.407 494.084L133.541 483.901L113.267 459.738L119.281 454.688L148.927 465.476L154.406 496.547L150.725 499.637L179.956 534.467H151.32L133.919 513.736L130.239 516.826L100.593 506.034L95.1137 474.967L101.132 469.917Z" fill="white"/>
<path d="M193.557 455.297L227.525 442.425L255.658 465.402L249.824 501.256L242.209 504.143L253.703 534.472H232.275L223.471 511.245L215.856 514.133L187.723 491.156L193.557 455.302V455.297ZM218.416 498.392L237.473 491.169L240.747 471.052L224.961 458.157L205.904 465.379L202.629 485.497L218.416 498.392Z" fill="white"/>
<path d="M429.444 252.788C423.144 258.073 413.588 315.783 413.588 315.783C413.588 315.783 363.017 354.686 328.173 383.917C321.357 385.821 302.604 390.826 289.257 406.995C275.91 423.165 274.503 447.314 279.636 449.145C282.039 450.002 288.325 448.471 289.026 441.392C289.87 432.878 292.804 429.327 296.129 424.461C296.212 425.393 295.635 430.332 299.284 432.823C302.996 435.359 308.056 434.266 308.853 434.132C310.237 437.292 311.505 439.962 315.665 441.355C320.582 443.001 324.848 439.999 324.848 439.999C324.848 439.999 329.345 444.846 336.429 445.547C345.537 446.451 353.17 440.709 352.206 436.295C351.824 434.557 349.444 431.222 342.678 431.448C345.219 430.687 357.058 430.646 364.562 426.292C370.802 422.667 372.928 415.514 374.049 413.323C415.728 391.969 448.03 386.186 475.278 354.718C495.262 331.639 511.464 263.967 502.291 261.647C493.214 259.351 446.402 253.226 429.453 252.788H429.444Z" fill="#FF8400"/>
<path d="M296.12 424.23C296.304 424.23 296.475 424.12 296.549 423.94C297.038 422.718 297.669 421.555 298.421 420.481C299.33 419.185 300.414 418.018 301.645 417.013C301.843 416.851 301.871 416.561 301.71 416.362C301.548 416.164 301.258 416.136 301.059 416.298C299.763 417.354 298.619 418.585 297.66 419.95C296.867 421.08 296.203 422.307 295.686 423.594C295.589 423.829 295.705 424.097 295.944 424.193C296 424.217 296.06 424.226 296.115 424.226L296.12 424.23Z" fill="#363E44"/>
<path d="M309.163 434.949C309.393 434.949 309.596 434.773 309.619 434.538C309.762 433.233 310.062 431.942 310.5 430.706C311.026 429.211 311.759 427.8 312.677 426.504C312.825 426.296 312.774 426.011 312.566 425.863C312.359 425.715 312.068 425.766 311.925 425.974C310.957 427.339 310.186 428.829 309.628 430.401C309.167 431.706 308.854 433.062 308.701 434.441C308.674 434.695 308.854 434.921 309.107 434.949C309.126 434.949 309.144 434.949 309.158 434.949H309.163Z" fill="#363E44"/>
<path d="M324.687 439.639C324.728 439.639 324.774 439.634 324.816 439.621C325.06 439.547 325.199 439.293 325.129 439.049C324.65 437.416 324.714 435.322 325.295 433.713C326.352 430.779 328.598 429.202 329.838 428.519C330.06 428.395 330.143 428.118 330.023 427.892C329.898 427.671 329.621 427.588 329.395 427.708C328.04 428.45 325.586 430.18 324.428 433.399C323.787 435.184 323.713 437.499 324.244 439.307C324.304 439.51 324.488 439.639 324.687 439.639Z" fill="#363E44"/>
<path d="M337.762 436.277C337.872 436.277 337.978 436.24 338.066 436.162L343.176 431.642C343.365 431.471 343.384 431.181 343.218 430.992C343.047 430.803 342.757 430.784 342.567 430.95L337.457 435.47C337.268 435.641 337.25 435.931 337.416 436.12C337.508 436.222 337.633 436.277 337.762 436.277Z" fill="#363E44"/>
<path d="M414.649 272.555L518.912 282.757C518.912 282.757 506.543 179.392 466.783 176.228C425.229 172.921 414.653 272.559 414.653 272.559L414.649 272.555Z" fill="#1866C2"/>
<path d="M326.831 142.242C326.831 142.242 326.955 148.007 324.17 153.445C323.584 154.589 315.472 147.666 316.56 146.831C321.32 143.192 326.831 142.238 326.831 142.238V142.242Z" fill="white"/>
<path d="M565.132 9.7821H840.082V284.732H565.132V9.7821Z" fill="#EDEDED"/>
<path d="M555.811 275.873H830.761C831.015 275.873 831.222 275.665 831.222 275.411V0.461202C831.222 0.207541 831.015 0 830.761 0H555.811C555.557 0 555.349 0.207541 555.349 0.461202V275.411C555.349 275.665 555.557 275.873 555.811 275.873ZM830.3 274.95H556.272V0.922404H830.3V274.95Z" fill="#363E44"/>
<path d="M568.923 195.25L576.952 176.179L586.019 179.998C588.058 177.401 590.392 175.109 592.956 173.145L589.243 164.031L608.411 156.223L612.123 165.336C615.329 164.949 618.603 164.958 621.873 165.392L625.692 156.324L644.763 164.354L640.944 173.421C643.54 175.46 645.833 177.793 647.797 180.358L656.911 176.645L664.719 195.813L655.605 199.525C655.993 202.731 655.984 206.005 655.55 209.275L664.617 213.094L656.588 232.165L647.521 228.346C645.482 230.942 643.148 233.235 640.584 235.199L644.297 244.313L625.129 252.121L621.417 243.007C618.211 243.395 614.937 243.386 611.667 242.952L607.848 252.019L588.777 243.99L592.596 234.923C589.999 232.884 587.707 230.55 585.743 227.986L576.629 231.699L568.821 212.531L577.934 208.819C577.547 205.613 577.556 202.339 577.99 199.069L568.923 195.25ZM608.415 224.024C619.378 228.641 632.01 223.494 636.627 212.531C641.244 201.568 636.097 188.936 625.134 184.319C614.171 179.703 601.539 184.85 596.922 195.813C592.305 206.775 597.453 219.408 608.415 224.024Z" fill="white"/>
<path d="M675.336 0.673379V146.768C675.336 152.091 679.666 156.421 684.989 156.421H830.761C830.899 156.421 831.028 156.435 831.167 156.44V174.703C831.033 174.708 830.899 174.722 830.761 174.722H684.989C669.575 174.722 657.031 162.182 657.031 146.764V0.668762H675.336V0.673379Z" fill="#D4D4D4"/>
<path d="M679.233 135.151V139.79H652.732V135.151H679.233Z" fill="#D4D4D4"/>
<path d="M694.383 152.381H699.023V178.398H694.383V152.381Z" fill="#D4D4D4"/>
<path d="M635.294 93.1029H732.142C737.464 93.1029 741.795 88.7722 741.795 83.45V0.673401H760.1V83.45C760.1 98.8633 747.56 111.408 732.142 111.408H635.294C629.972 111.408 625.641 115.739 625.641 121.061V205.618C625.641 210.94 629.972 215.271 635.294 215.271H730.399C745.812 215.271 758.357 227.811 758.357 243.229V275.315H740.052V243.229C740.052 237.907 735.721 233.576 730.399 233.576H635.294C619.881 233.576 607.336 221.036 607.336 205.618V121.061C607.336 105.648 619.876 93.1029 635.294 93.1029Z" fill="#D4D4D4"/>
<path d="M720.515 89.1505H725.155V115.651H720.515V89.1505Z" fill="#D4D4D4"/>
<path d="M737.741 73.9999V69.3602H763.757V73.9999H737.741Z" fill="#D4D4D4"/>
<path d="M629.229 194.383V199.023H602.729V194.383H629.229Z" fill="#D4D4D4"/>
<path d="M644.384 211.613H649.024V237.63H644.384V211.613Z" fill="#D4D4D4"/>
<path d="M646.483 115.642H641.843V89.1412H646.483V115.642Z" fill="#D4D4D4"/>
<path d="M629.252 130.802V135.441H603.236V130.802H629.252Z" fill="#D4D4D4"/>
<path d="M736.422 254.833V250.193H762.923V254.833H736.422Z" fill="#D4D4D4"/>
<path d="M721.271 237.602H716.632V211.586H721.271V237.602Z" fill="#D4D4D4"/>
<path d="M683.84 58.4251L622.27 57.9778L622.242 61.7734L600.575 74.0737L579.088 61.4598L579.134 55.2613L604.043 55.4411L604.135 42.9287L579.226 42.7489L579.267 36.5457L600.935 24.2454L622.422 36.8593L622.394 40.655L683.965 41.1024L683.993 37.3067L705.66 25.0064L727.143 37.6203L727.097 43.8235L702.187 43.6436L702.099 56.1514L727.009 56.3313L726.963 62.5344L705.295 74.8347L683.813 62.2208L683.84 58.4251Z" fill="#1866C2"/>
<path d="M751.489 172.44C747.585 159.663 754.778 146.141 767.555 142.237C780.331 138.333 793.854 145.526 797.758 158.303C801.661 171.08 794.468 184.602 781.692 188.506C768.915 192.409 755.393 185.216 751.489 172.44Z" fill="#D4D4D4"/>
<path d="M774.614 174.851C769.387 174.851 765.15 170.614 765.15 165.387C765.15 160.16 769.387 155.923 774.614 155.923C779.841 155.923 784.078 160.16 784.078 165.387C784.078 170.614 779.841 174.851 774.614 174.851Z" fill="#D4D4D4"/>
<path d="M771.303 116.532H777.93V153.769H771.303V116.532Z" fill="#D4D4D4"/>
<path d="M757.836 118.289C760.146 118.289 762.152 119.581 763.176 121.481H786.052C787.076 119.581 789.082 118.289 791.393 118.289C794.741 118.289 797.453 121.006 797.453 124.354C797.453 127.702 794.736 130.414 791.393 130.414C789.082 130.414 787.076 129.123 786.052 127.223H763.176C762.152 129.123 760.146 130.414 757.836 130.414C754.487 130.414 751.775 127.698 751.775 124.354C751.775 121.01 754.487 118.289 757.836 118.289Z" fill="#D87355"/>
<path d="M715.502 123.625C715.502 126.392 717.748 128.639 720.515 128.639C723.282 128.639 725.528 126.392 725.528 123.625C725.528 120.858 720.515 111.403 720.515 111.403C720.515 111.403 715.502 120.858 715.502 123.625Z" fill="white"/>
<path d="M721.723 147.096C721.723 148.991 723.259 150.523 725.15 150.523C727.041 150.523 728.577 148.987 728.577 147.096C728.577 145.205 725.15 138.734 725.15 138.734C725.15 138.734 721.723 145.2 721.723 147.096Z" fill="white"/>
<path d="M715.622 168.449C715.622 170.345 717.158 171.876 719.049 171.876C720.939 171.876 722.475 170.34 722.475 168.449C722.475 166.559 719.049 160.088 719.049 160.088C719.049 160.088 715.622 166.554 715.622 168.449Z" fill="white"/>
<path d="M670.267 221.133L673.39 213.721L676.913 215.206C677.706 214.196 678.61 213.306 679.607 212.545L678.163 209.003L685.611 205.968L687.055 209.51C688.3 209.358 689.573 209.363 690.846 209.533L692.331 206.01L699.743 209.132L698.258 212.656C699.268 213.449 700.158 214.353 700.919 215.349L704.461 213.906L707.495 221.354L703.953 222.798C704.106 224.043 704.101 225.316 703.93 226.589L707.454 228.074L704.332 235.485L700.808 234C700.015 235.01 699.111 235.9 698.115 236.661L699.558 240.203L692.11 243.238L690.666 239.696C689.421 239.848 688.148 239.844 686.875 239.673L685.39 243.197L677.978 240.074L679.464 236.551C678.454 235.757 677.563 234.853 676.802 233.857L673.26 235.301L670.226 227.852L673.768 226.409C673.616 225.164 673.62 223.891 673.791 222.618L670.267 221.133ZM685.607 232.312C689.868 234.106 694.775 232.105 696.57 227.848C698.364 223.586 696.367 218.679 692.105 216.885C687.844 215.091 682.936 217.093 681.142 221.349C679.348 225.611 681.35 230.518 685.607 232.312Z" fill="white"/>
<path d="M323.817 68.7236C323.817 68.7236 366.627 56.7946 353.608 138.474L312.349 108.012L323.796 68.7236H323.817Z" fill="#131B20"/>
<path d="M387.34 180.99L343.126 121.052L310.462 136.755L332.496 205.54C335.39 218.895 361.176 247.365 387.34 181.011V180.99Z" fill="#FF8400"/>
<path d="M275.808 105.391C275.808 105.391 263.816 136.545 297.946 172.164C302.391 176.797 318.513 173.548 324.404 172.458L348.744 121.953C348.744 121.953 322.685 64.0485 275.808 105.391Z" fill="#FF8400"/>
<path d="M299.833 126.964C300.42 128.704 301.909 129.773 303.188 129.354C304.467 128.935 305.012 127.174 304.425 125.433C303.838 123.693 302.349 122.624 301.07 123.043C299.791 123.463 299.246 125.224 299.833 126.964Z" fill="#131B20"/>
<path d="M279.98 133.505C280.692 135.203 282.286 136.147 283.502 135.622C284.739 135.098 285.158 133.295 284.424 131.618C283.711 129.92 282.118 128.977 280.902 129.501C279.665 130.025 279.246 131.828 279.98 133.505Z" fill="#131B20"/>
<path d="M312.811 152.352L296.626 157.237C296.626 157.237 306.773 173.003 312.811 152.352Z" fill="#EDEDED"/>
<path d="M321.385 172.961C321.385 172.961 329.394 171.2 334.53 150.151C334.53 150.151 348.996 176.776 328.975 194.743L321.385 172.961Z" fill="#131B20"/>
<path d="M336.228 125.035C341.386 131.933 350.694 133.715 357.025 128.977C363.336 124.259 364.279 114.825 359.122 107.928C353.964 101.03 344.656 99.2484 338.325 103.986C332.014 108.704 331.071 118.138 336.228 125.035Z" fill="#FF8400"/>
<path d="M349.939 108.934C349.709 109.249 345.012 115.58 343.545 117.53C343.356 117.802 343.524 118.159 343.838 118.201L352.644 119.479" stroke="#131B20" stroke-width="1.7" stroke-miterlimit="10" stroke-linecap="round"/>
<path d="M300.148 144.595C296.395 146.566 292.307 146.566 292.307 146.566C292.118 138.788 289.54 133.065 287.527 129.773C285.829 126.985 283.166 124.846 279.98 124.113C278.24 123.693 276.227 123.63 274.277 124.448" stroke="#131B20" stroke-width="1.7" stroke-miterlimit="10" stroke-linecap="round"/>
<path d="M305.41 116.104C293.67 112.98 292.454 122.247 292.454 122.247" stroke="#131B20" stroke-width="1.7" stroke-miterlimit="10" stroke-linecap="round"/>
<path d="M340.841 101.303C332.811 107.173 336.375 117.949 336.375 117.949L330.715 119.186C330.715 119.186 319.016 119.102 313.482 93.6298C313.482 93.6298 304.299 103.043 277.674 112.834C270.86 115.349 263.208 114.217 257.38 109.899L250 104.427L261.803 102.204L253.187 92.6026L273.124 91.8688C273.124 91.8688 288.617 64.8032 323.817 68.7446C323.817 68.7446 347.78 96.2504 340.841 101.324V101.303Z" fill="#131B20"/>
<path d="M268.323 95.6635C268.323 95.6635 261.363 80.9671 285.326 67.8431C309.288 54.6982 332.476 72.4763 332.476 72.4763L268.302 95.6635H268.323Z" fill="#131B20"/>
</svg>
