<svg width="870" height="919" viewBox="0 0 870 919" fill="none" xmlns="http://www.w3.org/2000/svg">
<path d="M364.146 385.281L312.616 324.73L275.113 303.572C269.474 300.388 266.944 293.608 269.124 287.509L286.589 238.64L295.528 253.54L319.719 270.683L327.578 269.211L434.221 347.345L423.618 369.989C417.911 397.879 382.595 406.955 364.146 385.281Z" fill="#FF8400"/>
<path d="M347.079 246.196L439.874 316.863L418.186 391.174L434.572 464.743L661.143 395.561L659.658 250.178L564.14 128.4L439.798 149.957C410.973 154.874 386.239 175.867 372.418 202.079L347.079 246.203V246.196Z" fill="#F0F0F0"/>
<path d="M301.016 207.181L272.892 240.269L231.043 235.236C222.393 234.198 214.492 229.817 209.04 223.031L187.029 195.656C188.122 191.517 189.36 186.855 190.659 181.932L230.088 197.348C233.711 198.744 237.789 197.114 239.46 193.614L247.381 176.953C249.465 172.58 246.866 167.416 242.114 166.481L196.862 158.491C198.361 152.838 199.819 147.337 201.146 142.331L246.776 139.395C261.794 137.484 276.22 145.928 281.9 159.969L301.016 207.188V207.181Z" fill="#D4D4D4"/>
<path d="M532.524 352.152C511.476 335.642 481.035 339.314 464.511 360.355C448.001 381.403 451.673 411.844 472.714 428.354C493.756 444.871 524.203 441.206 540.713 420.158C557.23 399.116 553.565 368.669 532.517 352.152H532.524ZM495.832 416.273C481.062 412.504 472.102 397.404 475.877 382.627C479.652 367.85 494.746 358.897 509.516 362.673C524.293 366.448 533.252 381.534 529.477 396.318C525.702 411.095 510.609 420.054 495.825 416.279L495.832 416.273Z" fill="#D4D4D4"/>
<path d="M467.997 393.87L257.166 230.491L289.312 189.523L500.144 352.901L467.997 393.87Z" fill="#D4D4D4"/>
<path d="M302.343 239.252L288.996 229.632C286.569 227.885 286.019 224.495 287.772 222.068C289.519 219.641 292.909 219.091 295.336 220.844L308.683 230.464C311.11 232.21 311.66 235.6 309.907 238.028C308.16 240.455 304.77 241.005 302.343 239.252Z" stroke="#131B20" stroke-width="1.7" stroke-miterlimit="10" stroke-linecap="round"/>
<path d="M227.853 147.482L249.265 146.725C260.673 146.327 270.891 153.725 274.068 164.686L278.31 179.325" stroke="#F0F0F0" stroke-width="1.7" stroke-miterlimit="10" stroke-linecap="round"/>
<mask id="mask0_3_38" style="mask-type:luminance" maskUnits="userSpaceOnUse" x="257" y="189" width="244" height="205">
<path d="M468.018 393.787L257.187 230.409L289.333 189.44L500.164 352.819L468.018 393.787Z" fill="white"/>
</mask>
<g mask="url(#mask0_3_38)">
<path d="M283.681 275.84C285.187 275.73 402.213 232.63 402.213 232.63" stroke="#F0F0F0" stroke-width="1.7" stroke-miterlimit="10" stroke-linecap="round"/>
<path d="M296.127 290.851C297.633 290.741 414.659 247.641 414.659 247.641" stroke="#F0F0F0" stroke-width="1.7" stroke-miterlimit="10" stroke-linecap="round"/>
</g>
<path d="M535.045 402.922C542.483 385.035 534.013 364.505 516.126 357.067C498.239 349.629 477.71 358.099 470.271 375.985C462.833 393.872 471.303 414.402 489.19 421.84C507.077 429.278 527.607 420.808 535.045 402.922Z" stroke="#F0F0F0" stroke-width="1.7" stroke-miterlimit="10" stroke-linecap="round"/>
<path d="M509.516 362.672C494.746 358.904 479.652 367.85 475.877 382.627C472.102 397.404 481.062 412.504 495.832 416.273C510.609 420.048 525.709 411.088 529.484 396.311C533.259 381.534 524.3 366.441 509.523 362.666L509.516 362.672ZM499.298 413.55L480.794 399.027L484.122 375.751L505.947 366.984L524.451 381.506L521.123 404.782L499.298 413.55Z" fill="#131B20"/>
<path d="M217.497 148.004L199.598 149.05" stroke="#F0F0F0" stroke-width="1.7" stroke-miterlimit="10" stroke-linecap="round"/>
<path d="M189.229 187.226L222.331 200.944" stroke="#F0F0F0" stroke-width="1.7" stroke-miterlimit="10" stroke-linecap="round"/>
<path d="M268.168 291.552L270.135 238.323C270.375 233.812 275.505 231.344 279.184 233.971L305.939 253.121C309.714 255.823 312.128 260.031 312.554 264.652L315.352 295.1L268.168 291.552Z" fill="#FF8400"/>
<path d="M281.81 236.205L280.222 269.899" stroke="#131B20" stroke-width="1.7" stroke-miterlimit="10" stroke-linecap="round"/>
<path d="M292.847 243.941L291.52 274.98" stroke="#131B20" stroke-width="1.7" stroke-miterlimit="10" stroke-linecap="round"/>
<path d="M302.927 252.523L302.13 276.933" stroke="#131B20" stroke-width="1.7" stroke-miterlimit="10" stroke-linecap="round"/>
<path d="M313.84 274.423L314.899 290.61" stroke="#131B20" stroke-width="1.7" stroke-miterlimit="10" stroke-linecap="round"/>
<path d="M419.169 329.777L380.174 501.764L184.285 911.442L691.673 918.476L690.546 412.044L419.169 329.777Z" fill="#1866C2"/>
<path d="M513.538 27.7808C513.538 27.7808 551.158 32.883 513.366 92.5684L491.287 54.7424L513.545 27.7808H513.538Z" fill="#131B20"/>
<path d="M551.103 130.477L523.213 276.851L499.841 273.887L525.434 134.554L551.103 130.477Z" fill="#1866C2"/>
<path d="M474.825 143.954L446.936 290.328L428.163 286.835L455.146 147.303L474.825 143.954Z" fill="#1866C2"/>
<path d="M525.565 135.235L511.008 75.3366L480.079 76.6225L477.734 108.727L476.338 127.933L475.197 143.597C472.948 155.066 492.49 180.219 525.572 135.235H525.565Z" fill="#FF8400"/>
<path d="M538.231 197.142L445.725 199.761L419.176 329.784L389.822 482.477L679.881 460.665L662.615 351.306L637.076 310.571L574.262 277.738C560.303 268.867 550.498 254.757 547.06 238.585L538.238 197.149L538.231 197.142Z" fill="#1866C2"/>
<path d="M463.473 40.3367C463.473 40.3367 443.539 60.7315 458.295 100.208C460.213 105.337 473.959 108.232 478.958 109.367L515.106 77.9633C515.106 77.9633 514.219 23.7307 463.466 40.3367H463.473Z" fill="#FF8400"/>
<path d="M475.039 65.373C474.908 66.9407 475.719 68.2885 476.861 68.3847C478.002 68.481 479.034 67.2914 479.164 65.7237C479.295 64.1559 478.484 62.8081 477.342 62.7119C476.201 62.6156 475.169 63.8052 475.039 65.373Z" fill="#131B20"/>
<path d="M457.25 63.7983C457.243 65.373 458.158 66.652 459.306 66.652C460.447 66.652 461.382 65.3867 461.389 63.819C461.396 62.2443 460.482 60.9653 459.333 60.9653C458.192 60.9653 457.257 62.2306 457.25 63.7983Z" fill="#131B20"/>
<path d="M476.648 89.6872L462.297 88.0507C462.297 88.0507 464.93 103.845 476.648 89.6872Z" fill="#F0F0F0"/>
<path d="M476.331 127.933C496.692 120.018 494.443 95.2982 494.443 95.2982C486.178 106.252 480.244 108.356 477.734 108.727L476.338 127.933H476.331Z" fill="#131B20"/>
<path d="M504.242 76.1617C505.961 83.3199 512.665 87.8513 519.218 86.2766C525.771 84.702 529.691 77.6195 527.965 70.4614C526.246 63.2964 519.541 58.7718 512.988 60.3465C506.435 61.9211 502.516 69.0036 504.242 76.1617Z" fill="#FF8400"/>
<path d="M520.442 68.1509C520.153 68.3297 514.322 71.6922 512.521 72.7374C512.273 72.8818 512.287 73.2187 512.528 73.37L519.005 77.3375" stroke="#131B20" stroke-width="1.7" stroke-miterlimit="10" stroke-linecap="round"/>
<path d="M469.331 79.3248C465.714 79.593 462.51 78.2109 462.51 78.2109C464.986 72.036 464.896 66.6932 464.429 63.4133C464.037 60.649 462.668 58.0773 460.427 56.4202C459.196 55.5125 457.649 54.7768 455.833 54.763" stroke="#131B20" stroke-width="1.7" stroke-miterlimit="10" stroke-linecap="round"/>
<path d="M483.084 58.7374C474.928 52.315 470.837 59.1775 470.837 59.1775" stroke="#131B20" stroke-width="1.7" stroke-miterlimit="10" stroke-linecap="round"/>
<path d="M515.89 59.095C507.611 60.9859 506.758 70.6401 506.758 70.6401L501.904 69.6912C501.904 69.6912 492.752 65.6755 497.015 43.8161C497.015 43.8161 486.632 48.0999 462.428 46.7934C456.225 46.4565 450.607 43.0047 447.493 37.6275L443.552 30.8407L453.571 33.0961L450.057 22.658L465.948 28.8122C465.948 28.8122 487.258 12.8113 513.538 27.7876C513.538 27.7876 523.048 57.4653 515.89 59.1018V59.095Z" fill="#131B20"/>
<path d="M514.453 197.719L514.137 198.964C512.294 206.17 517.644 213.218 525.084 213.376C530.591 213.493 535.412 209.718 536.615 204.341L537.956 198.393" stroke="#131B20" stroke-width="1.7" stroke-miterlimit="10" stroke-linecap="round"/>
<path d="M464.374 221.91L508.601 221.703L504.496 254.414H459.677L464.374 221.91Z" stroke="#131B20" stroke-width="1.7" stroke-miterlimit="10" stroke-linecap="round"/>
<path d="M460.894 30.1806C460.894 30.1806 460.399 16.3044 483.641 14.0903C506.882 11.8761 519.074 33.66 519.074 33.66L460.894 30.1806Z" fill="#131B20"/>
<path d="M425.729 296.799L419.74 245.316" stroke="#131B20" stroke-width="1.7" stroke-miterlimit="10" stroke-linecap="round"/>
<path d="M496.128 495.473L456.48 911.82" stroke="#131B20" stroke-width="1.7" stroke-miterlimit="10" stroke-linecap="round"/>
<path d="M466.189 464.069L497.792 494.558L483.943 620.888L466.189 464.069Z" fill="#131B20"/>
<path d="M429.03 13.3339L529.457 57.2934C539.152 4.15415 500.989 -5.38315 480.787 2.36633C479.934 2.68952 479.095 3.06083 478.291 3.4459C471.999 6.42329 467.255 10.8791 464.14 14.4616C461.231 17.824 459.746 20.4301 459.746 20.4301L431.76 7.2897C431.313 7.08341 430.845 6.98714 430.364 6.98714C429.112 6.98714 427.902 7.69539 427.338 8.91935C426.568 10.5903 427.325 12.605 429.03 13.3408V13.3339Z" fill="#1866C2"/>
<path d="M464.229 199.466L463.617 202.45C462.331 208.721 456.892 213.273 450.491 213.431L442.273 213.631" stroke="#131B20" stroke-width="1.7" stroke-miterlimit="10" stroke-linecap="round"/>
<path d="M413.723 344.1L654.549 356.023L663.563 394.819L406.985 382.345C404.083 382.201 402.006 379.492 402.625 376.652L408.89 347.799C409.378 345.551 411.427 343.983 413.723 344.1Z" fill="#131B20"/>
<path d="M564.335 395.172L575.016 396.162L579.62 346.537L568.939 345.546L564.335 395.172Z" fill="#1866C2"/>
<path d="M531.427 392.897L542.036 394.483L549.403 345.192L538.794 343.606L531.427 392.897Z" fill="#1866C2"/>
<path d="M420.304 387.495L430.913 389.08L438.28 339.789L427.671 338.203L420.304 387.495Z" fill="#1866C2"/>
<path d="M667.545 475.937L645.369 519.34C644.227 521.822 644.564 524.738 646.256 526.89C648.979 530.362 654.143 530.644 657.224 527.481L674.813 509.424L667.545 475.944V475.937Z" fill="#FF8400"/>
<path d="M632.387 581.769V537.548C632.387 524.16 643.279 513.268 656.667 513.268H738.528C751.916 513.268 762.801 524.16 762.801 537.548V581.769C762.801 595.157 751.909 606.049 738.528 606.049H656.667C643.279 606.049 632.387 595.157 632.387 581.769ZM656.667 524.071C649.233 524.071 643.189 530.115 643.189 537.548V581.769C643.189 589.202 649.233 595.246 656.667 595.246H738.528C745.961 595.246 752.005 589.202 752.005 581.769V537.548C752.005 530.115 745.961 524.071 738.528 524.071H656.667Z" fill="#131B20"/>
<path d="M542.542 582.78V723.24C542.542 729.367 547.507 734.331 553.634 734.331H839.017C845.143 734.331 850.108 729.367 850.108 723.24V582.78H542.542Z" fill="#F0F0F0"/>
<path d="M537.048 595.858H858.951C864.526 595.858 869.045 591.339 869.045 585.764V563.87C869.045 558.295 864.526 553.776 858.951 553.776H537.048C531.473 553.776 526.954 558.295 526.954 563.87V585.764C526.954 591.339 531.473 595.858 537.048 595.858Z" fill="#F0F0F0"/>
<path d="M847.13 597.364H540.349" stroke="#131B20" stroke-width="1.7" stroke-miterlimit="10" stroke-linecap="round"/>
<path d="M784.385 615.366H798.763C802.299 615.366 805.165 612.5 805.165 608.964V589.415C805.165 585.88 802.299 583.013 798.763 583.013H784.385C780.85 583.013 777.983 585.88 777.983 589.415V608.964C777.983 612.5 780.85 615.366 784.385 615.366Z" fill="#F0F0F0" stroke="#131B20" stroke-width="1.7" stroke-miterlimit="10" stroke-linecap="round"/>
<path d="M599.374 615.366H613.752C617.288 615.366 620.154 612.5 620.154 608.964V589.415C620.154 585.88 617.288 583.013 613.752 583.013H599.374C595.838 583.013 592.972 585.88 592.972 589.415V608.964C592.972 612.5 595.838 615.366 599.374 615.366Z" fill="#F0F0F0" stroke="#131B20" stroke-width="1.7" stroke-miterlimit="10" stroke-linecap="round"/>
<path d="M542.542 646.625V723.24C542.542 729.367 547.507 734.331 553.634 734.331H839.017C845.143 734.331 850.108 729.367 850.108 723.24V646.625H542.542Z" fill="#131B20"/>
<path d="M607.598 238.454L700.44 233.393L737.854 332.513C741.876 343.172 743.547 354.559 742.743 365.918C739.814 407.574 732.456 511.735 730.875 531.215C730.352 537.596 724.762 540.711 717.122 543.056L687.747 549.224C680.994 550.695 671.884 549.224 670.708 538.648L670.213 529.407L664.684 504.363L652.747 377.126L607.598 238.454Z" fill="#FF8400"/>
<path d="M691.295 529.125L691.515 547.353" stroke="#131B20" stroke-width="1.7" stroke-miterlimit="10" stroke-linecap="round"/>
<path d="M706.835 530.665V544.225" stroke="#131B20" stroke-width="1.7" stroke-miterlimit="10" stroke-linecap="round"/>
<path d="M719.508 530.149L719.687 540.539" stroke="#131B20" stroke-width="1.7" stroke-miterlimit="10" stroke-linecap="round"/>
<path d="M728.275 282.015L614.577 292.927L551.11 130.477L566.045 128.091C608.753 121.249 650.595 137.236 677.962 168.014C687.3 178.514 694.946 190.719 700.351 204.341C700.887 205.648 701.383 206.982 701.864 208.315L728.275 282.022V282.015Z" fill="#F0F0F0"/>
<path d="M626.611 294.433L601.705 225.609" stroke="#131B20" stroke-width="1.7" stroke-miterlimit="10" stroke-linecap="round"/>
<path d="M592.855 232.87L608.54 247.661" stroke="#131B20" stroke-width="1.7" stroke-miterlimit="10" stroke-linecap="round"/>
<path d="M676.738 220.995C670.096 224.935 660.015 220.232 654.239 210.488C648.463 200.745 649.158 189.647 655.8 185.7C662.443 181.76 672.516 186.463 678.299 196.206C684.082 205.95 683.381 217.048 676.738 220.995Z" fill="#131B20"/>
<path d="M695.104 284.579L645.596 141.885" stroke="#131B20" stroke-width="1.7" stroke-miterlimit="10" stroke-linecap="round"/>
<path d="M464.14 14.4616C465.783 16.1325 468.066 17.1639 470.576 17.1639C475.575 17.1639 479.618 13.1138 479.618 8.12172C479.618 6.40267 479.137 4.79364 478.298 3.43903C472.006 6.41642 467.262 10.8722 464.147 14.4547L464.14 14.4616Z" fill="#131B20"/>
<path d="M1 613.537H26.5382" stroke="#F0F0F0" stroke-width="1.7" stroke-miterlimit="10" stroke-linecap="round"/>
<path d="M275.924 3.22583H301.463" stroke="#F0F0F0" stroke-width="1.7" stroke-miterlimit="10" stroke-linecap="round"/>
</svg>
