<svg width="146" height="24" viewBox="0 0 146 24" fill="none" xmlns="http://www.w3.org/2000/svg">
<g id="Group 697">
<path id="Star 1" d="M12.5259 1.41631C12.6782 0.961281 13.3218 0.961282 13.4741 1.41631L15.9546 8.82591C16.0229 9.02977 16.2138 9.16718 16.4288 9.16718H24.4233C24.9113 9.16718 25.1103 9.79459 24.7115 10.0758L18.2697 14.6184C18.0892 14.7456 18.0136 14.9763 18.0837 15.1857L20.5503 22.5537C20.7036 23.0117 20.1827 23.3994 19.788 23.121L13.2881 18.5376C13.1154 18.4157 12.8846 18.4157 12.7119 18.5376L6.21202 23.121C5.81727 23.3994 5.2964 23.0117 5.44974 22.5537L7.91631 15.1857C7.98642 14.9763 7.91081 14.7456 7.73031 14.6184L1.28852 10.0758C0.889729 9.79459 1.08869 9.16718 1.57666 9.16718H9.57123C9.7862 9.16718 9.97712 9.02977 10.0454 8.82591L12.5259 1.41631Z" fill="#1866C2"/>
<path id="Star 9" d="M42.5259 1.41631C42.6782 0.961281 43.3218 0.961282 43.4741 1.41631L45.9546 8.82591C46.0229 9.02977 46.2138 9.16718 46.4288 9.16718H54.4233C54.9113 9.16718 55.1103 9.79459 54.7115 10.0758L48.2697 14.6184C48.0892 14.7456 48.0136 14.9763 48.0837 15.1857L50.5503 22.5537C50.7036 23.0117 50.1827 23.3994 49.788 23.121L43.2881 18.5376C43.1154 18.4157 42.8846 18.4157 42.7119 18.5376L36.212 23.121C35.8173 23.3994 35.2964 23.0117 35.4497 22.5537L37.9163 15.1857C37.9864 14.9763 37.9108 14.7456 37.7303 14.6184L31.2885 10.0758C30.8897 9.79459 31.0887 9.16718 31.5767 9.16718H39.5712C39.7862 9.16718 39.9771 9.02977 40.0454 8.82591L42.5259 1.41631Z" fill="#1866C2"/>
<path id="Star 6" d="M72.5259 1.41631C72.6782 0.961281 73.3218 0.961282 73.4741 1.41631L75.9546 8.82591C76.0229 9.02977 76.2138 9.16718 76.4288 9.16718H84.4233C84.9113 9.16718 85.1103 9.79459 84.7115 10.0758L78.2697 14.6184C78.0892 14.7456 78.0136 14.9763 78.0837 15.1857L80.5503 22.5537C80.7036 23.0117 80.1827 23.3994 79.788 23.121L73.2881 18.5376C73.1154 18.4157 72.8846 18.4157 72.7119 18.5376L66.212 23.121C65.8173 23.3994 65.2964 23.0117 65.4497 22.5537L67.9163 15.1857C67.9864 14.9763 67.9108 14.7456 67.7303 14.6184L61.2885 10.0758C60.8897 9.79459 61.0887 9.16718 61.5767 9.16718H69.5712C69.7862 9.16718 69.9771 9.02977 70.0454 8.82591L72.5259 1.41631Z" fill="#1866C2"/>
<path id="Star 8" d="M102.526 1.41631C102.678 0.961281 103.322 0.961282 103.474 1.41631L105.955 8.82591C106.023 9.02977 106.214 9.16718 106.429 9.16718H114.423C114.911 9.16718 115.11 9.79459 114.711 10.0758L108.27 14.6184C108.089 14.7456 108.014 14.9763 108.084 15.1857L110.55 22.5537C110.704 23.0117 110.183 23.3994 109.788 23.121L103.288 18.5376C103.115 18.4157 102.885 18.4157 102.712 18.5376L96.212 23.121C95.8173 23.3994 95.2964 23.0117 95.4497 22.5537L97.9163 15.1857C97.9864 14.9763 97.9108 14.7456 97.7303 14.6184L91.2885 10.0758C90.8897 9.79459 91.0887 9.16718 91.5767 9.16718H99.5712C99.7862 9.16718 99.9771 9.02977 100.045 8.82591L102.526 1.41631Z" fill="#1866C2"/>
<path id="Star 7" opacity="0.2" d="M132.526 1.41631C132.678 0.961281 133.322 0.961282 133.474 1.41631L135.955 8.82591C136.023 9.02977 136.214 9.16718 136.429 9.16718H144.423C144.911 9.16718 145.11 9.79459 144.711 10.0758L138.27 14.6184C138.089 14.7456 138.014 14.9763 138.084 15.1857L140.55 22.5537C140.704 23.0117 140.183 23.3994 139.788 23.121L133.288 18.5376C133.115 18.4157 132.885 18.4157 132.712 18.5376L126.212 23.121C125.817 23.3994 125.296 23.0117 125.45 22.5537L127.916 15.1857C127.986 14.9763 127.911 14.7456 127.73 14.6184L121.289 10.0758C120.89 9.79459 121.089 9.16718 121.577 9.16718H129.571C129.786 9.16718 129.977 9.02977 130.045 8.82591L132.526 1.41631Z" fill="#04111E"/>
</g>
</svg>
