<svg width="37" height="42" viewBox="0 0 37 42" fill="none" xmlns="http://www.w3.org/2000/svg">
<path d="M0.0656586 11.7725V27.125C0.0656586 29.5948 2.00141 31.5305 4.40442 31.664C4.27092 25.0558 8.94343 19.1817 15.6852 17.9802C16.4862 17.8467 17.2872 17.78 18.0882 17.78C24.6965 17.78 30.3702 22.5192 31.505 29.0608C31.6385 29.9285 31.7052 30.7963 31.7052 31.664C34.1083 31.5305 36.044 29.528 36.044 27.125V11.7725H0.0656586Z" fill="#5FC323"/>
<path d="M13.6164 31.3972C13.6164 28.9942 15.6189 26.9916 18.0219 26.9916C20.4249 26.9916 22.4275 28.9942 22.4275 31.3972H13.6164ZM7.54216 31.3972C7.54216 37.1377 12.2147 41.8102 17.9552 41.8102C20.7587 41.8102 23.362 40.7422 25.3645 38.7397L23.2285 36.6037C21.8267 38.0054 19.9577 38.8064 17.9552 38.8064C13.8834 38.8064 10.5459 35.4689 10.5459 31.3972C10.5459 27.3254 13.8834 23.9879 17.9552 23.9879C22.027 23.9879 25.3645 27.3254 25.3645 31.3972H28.3682C28.3682 25.6566 23.6957 20.9841 17.9552 20.9841C12.2147 20.9841 7.54216 25.6566 7.54216 31.3972Z" fill="black"/>
<path d="M3.59944 1.94595V7.42116H2.07855V1.94595H0V0.577148H5.67799V1.94595H3.59944Z" fill="black"/>
<path d="M10.595 7.37037L9.12475 5.19043H7.95874V7.37037H6.43785V0.526367H9.58102C11.2033 0.526367 12.1665 1.38821 12.1665 2.8077C12.1665 3.92302 11.5582 4.58207 10.6963 4.93695L12.3693 7.37037H10.595ZM10.595 2.8584C10.595 2.19935 10.1387 1.89517 9.42893 1.89517H7.95874V3.87233H9.47963C10.1894 3.87233 10.595 3.46675 10.595 2.8584Z" fill="black"/>
<path d="M16.1719 7.47176C14.3468 7.47176 13.2315 6.45784 13.2315 4.42998V0.526367H14.7524V4.37929C14.7524 5.49461 15.3101 6.05227 16.2226 6.05227C17.1351 6.05227 17.6928 5.49461 17.6928 4.42998V0.526367H19.2137V4.37929C19.163 6.45784 17.997 7.47176 16.1719 7.47176Z" fill="black"/>
<path d="M22.9148 7.47184C21.8502 7.47184 20.8363 7.11697 20.0251 6.35652L20.9377 5.2919C21.546 5.79886 22.2051 6.10304 22.9655 6.10304C23.5739 6.10304 23.9288 5.84956 23.9288 5.44399C23.9288 5.03841 23.6753 4.88633 22.56 4.58215C21.1912 4.22727 20.2786 3.8217 20.2786 2.5036C20.2786 1.23619 21.2926 0.425049 22.6614 0.425049C23.6753 0.425049 24.4864 0.729227 25.1962 1.28689L24.4357 2.40221C23.8274 1.99663 23.219 1.74315 22.6614 1.74315C22.1037 1.74315 21.7995 1.99664 21.7995 2.35151C21.7995 2.80778 22.1037 2.95987 23.2697 3.26404C24.6385 3.61892 25.4497 4.12588 25.4497 5.2919C25.4497 6.7114 24.385 7.47184 22.9148 7.47184Z" fill="black"/>
<path d="M29.2509 1.94595V7.42116H27.7301V1.94595H25.6515V0.577148H31.3295V1.94595H29.2509Z" fill="black"/>
<path d="M36.0452 5.29169H32.3951C32.5472 5.95074 33.0035 6.30561 33.6625 6.30561C34.1695 6.30561 34.5243 6.15352 34.9299 5.74795L35.7917 6.50839C35.2848 7.11675 34.575 7.47163 33.6625 7.47163C32.0909 7.47163 30.9249 6.35631 30.9249 4.78472C30.9249 3.26383 31.9895 2.04712 33.5104 2.04712C35.2341 2.04712 36.0452 3.41592 36.0452 4.88611C36.0452 5.0382 36.0452 5.1396 36.0452 5.29169ZM33.5104 3.21313C32.9021 3.21313 32.4965 3.6694 32.3951 4.32845H34.6257C34.5243 3.6694 34.1188 3.21313 33.5104 3.21313Z" fill="black"/>
</svg>
