<svg width="90" height="42" viewBox="0 0 90 42" fill="none" xmlns="http://www.w3.org/2000/svg">
<g id="trustpilot-logo">
<path id="Shape" d="M23.672 7.84375H32.7604V9.58684H29.2648V18.9995H27.1675V9.58684H23.672V7.84375ZM32.236 10.807H33.9838V12.3758C33.9838 12.2015 34.1586 12.0272 34.3334 11.6785C34.5081 11.3299 34.6829 11.3299 34.8577 11.1556C35.0325 10.9813 35.382 10.807 35.5568 10.807C35.7316 10.6327 36.0811 10.6327 36.4307 10.6327C36.6055 10.6327 36.7802 10.6327 36.7802 10.6327H36.955V12.3758C36.7802 12.3758 36.7802 12.3758 36.6055 12.3758C36.4307 12.3758 36.4307 12.3758 36.2559 12.3758C35.9064 12.3758 35.7316 12.3758 35.382 12.5501C35.0325 12.7244 34.8577 12.8987 34.6829 13.073C34.5081 13.2473 34.3334 13.5959 34.1586 13.9446C33.9838 14.2932 33.9838 14.6418 33.9838 15.1647V18.9995H32.236V10.807ZM45.1695 18.9995H43.4218V17.9537C43.247 18.3023 42.8974 18.6509 42.3731 18.9995C42.0236 19.1738 41.4992 19.3481 40.9749 19.3481C39.9262 19.3481 39.2271 19.1738 38.7028 18.4766C38.1785 17.7793 38.0037 17.0821 38.0037 16.0363V10.9813H39.7515V15.862C39.7515 16.5592 39.9262 17.0821 40.101 17.4307C40.4506 17.7793 40.8001 17.9537 41.3244 17.9537C41.674 17.9537 42.0236 17.9537 42.1983 17.7793C42.3731 17.605 42.7227 17.4307 42.7227 17.2564C42.8974 17.0821 43.0722 16.9078 43.0722 16.5592C43.0722 16.2106 43.247 16.0363 43.247 15.6876V10.9813H44.9948V18.9995H45.1695ZM48.1407 16.3849C48.1407 16.9078 48.3155 17.2564 48.6651 17.4307C49.0146 17.605 49.3642 17.7793 49.8885 17.7793C50.0633 17.7793 50.2381 17.7793 50.4128 17.7793C50.5876 17.7793 50.7624 17.7793 50.9372 17.605C51.112 17.605 51.2867 17.4307 51.4615 17.2564C51.6363 17.0821 51.6363 16.9078 51.6363 16.7335C51.6363 16.5592 51.4615 16.3849 51.4615 16.2106C51.2867 16.0363 51.112 16.0363 50.9372 15.862C50.7624 15.862 50.4128 15.6876 50.0633 15.6876C49.7137 15.6876 49.3642 15.5133 49.1894 15.5133C48.8399 15.5133 48.4903 15.339 48.3155 15.1647C48.1407 14.9904 47.7912 14.9904 47.4416 14.8161C47.2669 14.6418 46.9173 14.4675 46.9173 14.1189C46.7425 13.7702 46.7425 13.4216 46.7425 13.073C46.7425 12.5501 46.9173 12.2015 47.0921 12.0272C47.2669 11.8528 47.6164 11.5042 47.966 11.3299C48.3155 11.1556 48.6651 10.9813 49.0146 10.9813C49.3642 10.9813 49.8885 10.807 50.2381 10.807C50.5876 10.807 51.112 10.807 51.4615 10.9813C51.8111 10.9813 52.1606 11.1556 52.5102 11.3299C52.8597 11.5042 53.0345 11.8528 53.2093 12.0272C53.3841 12.3758 53.5588 12.7244 53.5588 13.2473H51.6363C51.6363 12.8987 51.2867 12.5501 51.112 12.3758C50.5876 12.2015 50.2381 12.0272 49.8885 12.0272C49.7137 12.0272 49.539 12.0272 49.3642 12.0272C49.1894 12.0272 49.0146 12.0272 48.8399 12.2015C48.6651 12.2015 48.4903 12.3758 48.4903 12.3758C48.3155 12.5501 48.3155 12.5501 48.3155 12.7244C48.3155 12.8987 48.3155 13.073 48.4903 13.2473C48.6651 13.4216 48.8399 13.4216 49.0146 13.5959C49.1894 13.5959 49.539 13.7702 49.8885 13.7702C50.2381 13.7702 50.5876 13.9446 50.9372 13.9446C51.2867 13.9446 51.6363 14.1189 51.8111 14.2932C52.1606 14.4675 52.3354 14.4675 52.6849 14.6418C53.0345 14.8161 53.2093 14.9904 53.2093 15.339C53.3841 15.6876 53.3841 15.8619 53.3841 16.3849C53.3841 16.9078 53.2093 17.2564 53.0345 17.605C52.8597 17.9537 52.5102 18.128 52.1606 18.4766C51.9858 18.8252 51.6363 18.9995 51.2867 18.9995C50.9372 18.9995 50.4128 19.1738 50.0633 19.1738C49.539 19.1738 49.0146 19.1738 48.6651 18.9995C48.3155 18.8252 47.7912 18.6509 47.6164 18.4766C47.2669 18.3023 47.0921 17.9537 46.9173 17.605C46.5678 17.2564 46.393 16.9078 46.393 16.3849H48.1407ZM54.0832 10.807H55.4814V8.54098H57.2292V10.9813H58.8021V12.3758H57.2292V16.7335C57.2292 16.9078 57.2292 17.0821 57.2292 17.2564C57.2292 17.4307 57.2292 17.4307 57.4039 17.605C57.5787 17.7793 57.5787 17.7793 57.5787 17.7793C57.7535 17.7793 57.9283 17.7793 58.103 17.7793C58.2778 17.7793 58.2778 17.7793 58.4526 17.7793C58.6274 17.7793 58.6274 17.7793 58.8021 17.7793V18.9995C58.6274 18.9995 58.4526 18.9995 58.2778 18.9995C58.103 18.9995 57.9283 18.9995 57.7535 18.9995C57.2292 18.9995 56.8796 18.9995 56.7048 18.8252C56.3553 18.8252 56.1805 18.6509 56.0057 18.4766C55.8309 18.3023 55.6562 18.128 55.6562 17.7793C55.6562 17.605 55.4814 17.2564 55.4814 16.9078V12.2015H54.0832V10.807ZM60.0256 10.807H61.7734V12.0272C61.9481 11.5042 62.2977 11.1556 62.822 10.9813C63.3464 10.807 63.6959 10.6327 64.2202 10.6327C64.9193 10.6327 65.4437 10.807 65.968 10.9813C66.4923 11.1556 66.8419 11.5042 67.1914 11.8528C67.541 12.2015 67.7158 12.7244 67.8906 13.2473C68.0653 13.7702 68.0653 14.2932 68.0653 14.9904C68.0653 15.5133 68.0653 16.0363 67.8906 16.5592C67.7158 17.0821 67.541 17.4307 67.1914 17.9537C66.8419 18.3023 66.4923 18.6509 66.1428 18.8252C65.6185 18.9995 65.2689 19.1738 64.5698 19.1738C64.395 19.1738 64.0455 19.1738 63.8707 19.1738C63.6959 19.1738 63.3463 18.9995 63.1716 18.9995C62.9968 18.8252 62.6472 18.8252 62.4725 18.6509C62.2977 18.4766 62.1229 18.3023 61.9481 18.128V22.1371H60.2004V10.807H60.0256ZM66.3176 14.9904C66.3176 14.6418 66.3176 14.2932 66.1428 13.9446C65.968 13.5959 65.968 13.2473 65.7932 13.073C65.6185 12.8987 65.4437 12.5501 65.0941 12.3758C64.7446 12.2015 64.5698 12.2015 64.0455 12.2015C63.3463 12.2015 62.6472 12.3758 62.2977 12.8987C61.9481 13.4216 61.7734 14.1189 61.7734 14.9904C61.7734 15.339 61.7734 15.8619 61.9481 16.0363C62.1229 16.3849 62.1229 16.7335 62.4725 16.9078C62.6472 17.0821 62.822 17.4307 63.1716 17.4307C63.5211 17.605 63.6959 17.605 64.0455 17.605C64.395 17.605 64.7446 17.605 65.0941 17.4307C65.4437 17.2564 65.6185 17.0821 65.7932 16.7335C65.968 16.3849 66.1428 16.2106 66.1428 15.862C66.1428 15.6876 66.3176 15.339 66.3176 14.9904ZM69.4635 7.84375H71.2113V9.58684H69.4635V7.84375ZM69.4635 10.807H71.2113V18.9995H69.4635V10.807ZM72.7843 7.84375H74.5321V18.9995H72.7843V7.84375ZM79.9502 19.1738C79.2511 19.1738 78.7267 18.9995 78.2024 18.8252C77.6781 18.6509 77.3285 18.3023 76.979 17.9537C76.6294 17.605 76.2799 17.0821 76.1051 16.5592C75.9303 16.0363 75.7555 15.5133 75.7555 14.8161C75.7555 14.1189 75.9303 13.5959 76.1051 13.073C76.2799 12.5501 76.6294 12.0272 76.979 11.6785C77.3285 11.3299 77.6781 10.9813 78.2024 10.807C78.7267 10.6327 79.2511 10.4584 79.9502 10.4584C80.6493 10.4584 81.1736 10.6327 81.6979 10.807C82.2223 10.9813 82.5718 11.3299 82.9214 11.6785C83.2709 12.0272 83.6205 12.5501 83.7953 13.073C83.97 13.5959 84.1448 14.1189 84.1448 14.8161C84.1448 15.5133 83.97 16.0363 83.7953 16.5592C83.6205 17.0821 83.2709 17.605 82.9214 17.9537C82.5718 18.3023 82.2223 18.6509 81.6979 18.8252C81.1736 18.9995 80.6493 19.1738 79.9502 19.1738ZM79.9502 17.7793C80.2997 17.7793 80.6493 17.7793 80.9988 17.605C81.3484 17.4307 81.5232 17.2564 81.6979 16.9078C81.8727 16.5592 82.0475 16.3849 82.0475 16.0363C82.0475 15.6876 82.2223 15.339 82.2223 14.9904C82.2223 14.6418 82.2223 14.2932 82.0475 13.9446C82.0475 13.5959 81.8727 13.2473 81.6979 13.073C81.5232 12.8987 81.3484 12.5501 80.9988 12.3758C80.6493 12.2015 80.2997 12.2015 79.9502 12.2015C79.6006 12.2015 79.2511 12.2015 78.9015 12.3758C78.5519 12.5501 78.3772 12.7244 78.2024 13.073C78.0276 13.4216 77.8528 13.5959 77.8528 13.9446C77.8528 14.2932 77.6781 14.6418 77.6781 14.9904C77.6781 15.339 77.6781 15.6876 77.8528 16.0363C77.8528 16.3849 78.0276 16.7335 78.2024 16.9078C78.3772 17.2564 78.5519 17.4307 78.9015 17.605C79.2511 17.605 79.6006 17.7793 79.9502 17.7793ZM84.6691 10.807H86.0674V8.54098H87.8151V10.9813H89.3881V12.3758H87.8151V16.7335C87.8151 16.9078 87.8151 17.0821 87.8151 17.2564C87.8151 17.4307 87.8151 17.4307 87.9899 17.605C88.1647 17.7793 88.1647 17.7793 88.1647 17.7793C88.3395 17.7793 88.5142 17.7793 88.689 17.7793C88.8638 17.7793 88.8638 17.7793 89.0386 17.7793C89.2133 17.7793 89.2133 17.7793 89.3881 17.7793V18.9995C89.2133 18.9995 89.0386 18.9995 88.8638 18.9995C88.689 18.9995 88.5142 18.9995 88.3395 18.9995C87.8151 18.9995 87.4656 18.9995 87.2908 18.8252C86.9412 18.8252 86.7665 18.6509 86.5917 18.4766C86.4169 18.3023 86.2421 18.128 86.2421 17.7793C86.2421 17.605 86.0674 17.2564 86.0674 16.9078V12.2015H84.6691V10.807Z" fill="#191919"/>
<g id="Star">
<path id="Path" d="M21.5743 7.84389H13.3597L10.9129 0L8.29121 7.84389H0.251465L6.71822 12.5502L4.27134 20.3941L10.9129 15.5135L17.3796 20.3941L14.9327 12.5502L21.5743 7.84389Z" fill="#00B67A"/>
<path id="Path_00000139974370896774244940000013599419466242447510_" d="M15.4568 14.2934L14.9325 12.5503L10.9126 15.5135L15.4568 14.2934Z" fill="#005128"/>
</g>
<path id="Rectangle" d="M17.03 25.2747H0.251404V42.0083H17.03V25.2747Z" fill="#00B67A"/>
<path id="Rectangle_00000119823381696065812290000006309620969489227403_" d="M35.0316 25.2747H18.253V42.0083H35.0316V25.2747Z" fill="#00B67A"/>
<path id="Rectangle_00000111193577153650357570000000971353195221845171_" d="M53.2092 25.2747H36.4306V42.0083H53.2092V25.2747Z" fill="#00B67A"/>
<path id="Rectangle_00000008833768892528033700000000322006702697863864_" d="M71.2108 25.2747H54.4323V42.0083H71.2108V25.2747Z" fill="#00B67A"/>
<path id="Rectangle_00000134962926880305233990000003318531366453452990_" d="M89.3875 25.2747H72.6089V42.0083H89.3875V25.2747Z" fill="#DCDCE6"/>
<path id="Rectangle_00000044876543712720924350000008132246518786235026_" d="M72.6089 25.2747H80.9982V41.834H72.6089V25.2747Z" fill="#00B67A"/>
<path id="Shape_00000004503963772281965500000004689748023012954798_" d="M8.46591 36.4305L11.0876 35.7333L12.1362 39.0452L8.46591 36.4305ZM14.4083 32.2471H9.86413L8.46591 28.0637L7.0677 32.2471H2.69827L6.36859 34.8618L4.97037 39.0452L8.64069 36.4305L10.9128 34.8618L14.4083 32.2471Z" fill="white"/>
<path id="Shape_00000062892359206520126170000006215398374882685355_" d="M26.643 36.4305L29.2646 35.7333L30.3133 39.0452L26.643 36.4305ZM32.4106 32.2471H27.8664L26.4682 28.0637L25.07 32.2471H20.5258L24.1961 34.8618L22.7979 39.0452L26.4682 36.4305L28.7403 34.8618L32.4106 32.2471Z" fill="white"/>
<path id="Shape_00000041986034659674372480000017210300048664811149_" d="M44.8197 36.4305L47.4414 35.7333L48.49 39.0452L44.8197 36.4305ZM50.5874 32.2471H46.0431L44.6449 28.0637L43.2467 32.2471H38.7025L42.3728 34.8618L41.1494 39.0452L44.8197 36.4305L47.0918 34.8618L50.5874 32.2471Z" fill="white"/>
<path id="Shape_00000155124147350657945740000004241176506388462744_" d="M62.8216 36.4305L65.4432 35.7333L66.4919 39.0452L62.8216 36.4305ZM68.764 32.2471H64.2198L62.8216 28.0637L61.4234 32.2471H56.8792L60.5495 34.8618L59.1513 39.0452L62.8216 36.4305L65.0937 34.8618L68.764 32.2471Z" fill="white"/>
<path id="Shape_00000131362776327819300620000011855054010791946398_" d="M80.9983 36.4305L83.6199 35.7333L84.6686 39.0452L80.9983 36.4305ZM86.7659 32.2471H82.2217L80.8235 28.0637L79.6 32.2471H75.0558L78.7262 34.8618L77.3279 39.0452L80.9983 36.4305L83.2704 34.8618L86.7659 32.2471Z" fill="white"/>
</g>
</svg>
