<svg width="10" height="5" viewBox="0 0 10 5" fill="none" xmlns="http://www.w3.org/2000/svg">
<path d="M9.79231 4.79382C9.72592 4.85915 9.64693 4.911 9.55989 4.94639C9.47286 4.98178 9.37951 5 9.28523 5C9.19094 5 9.09759 4.98178 9.01056 4.94639C8.92353 4.911 8.84454 4.85915 8.77814 4.79382L5.50708 1.60136C5.44069 1.53603 5.3617 1.48417 5.27467 1.44878C5.18763 1.41339 5.09428 1.39517 5 1.39517C4.90572 1.39517 4.81237 1.41339 4.72533 1.44878C4.6383 1.48417 4.55931 1.53603 4.49291 1.60136L1.22186 4.79382C1.15546 4.85915 1.07647 4.911 0.989437 4.94639C0.902405 4.98178 0.809054 5 0.714771 5C0.620487 5 0.527137 4.98178 0.440104 4.94639C0.353072 4.911 0.27408 4.85915 0.207685 4.79382C0.0746641 4.66322 0 4.48655 0 4.3024C0 4.11825 0.0746641 3.94159 0.207685 3.81099L3.48589 0.611558C3.88763 0.219958 4.4322 0 5 0C5.56779 0 6.11237 0.219958 6.51411 0.611558L9.79231 3.81099C9.92533 3.94159 10 4.11825 10 4.3024C10 4.48655 9.92533 4.66322 9.79231 4.79382Z" fill="black"/>
</svg>
