<svg width="24" height="24" viewBox="0 0 24 24" fill="none" xmlns="http://www.w3.org/2000/svg">
<path d="M22.4603 6C21.6903 6.35 20.8603 6.58 20.0003 6.69C20.8803 6.16 21.5603 5.32 21.8803 4.31C21.0503 4.81 20.1303 5.16 19.1603 5.36C18.3703 4.5 17.2603 4 16.0003 4C13.6503 4 11.7303 5.92 11.7303 8.29C11.7303 8.63 11.7703 8.96 11.8403 9.27C8.28025 9.09 5.11025 7.38 3.00025 4.79C2.63025 5.42 2.42025 6.16 2.42025 6.94C2.42025 8.43 3.17025 9.75 4.33025 10.5C3.62025 10.5 2.96025 10.3 2.38025 10V10.03C2.38025 12.11 3.86025 13.85 5.82025 14.24C5.19098 14.4122 4.53035 14.4362 3.89025 14.31C4.16186 15.1625 4.69379 15.9084 5.41127 16.4429C6.12875 16.9775 6.9957 17.2737 7.89025 17.29C6.37388 18.4904 4.49425 19.1393 2.56025 19.13C2.22025 19.13 1.88025 19.11 1.54025 19.07C3.44025 20.29 5.70025 21 8.12025 21C16.0003 21 20.3303 14.46 20.3303 8.79C20.3303 8.6 20.3303 8.42 20.3203 8.23C21.1603 7.63 21.8803 6.87 22.4603 6Z" fill="black"/>
</svg>
