<svg width="64" height="54" viewBox="0 0 64 54" fill="none" xmlns="http://www.w3.org/2000/svg">
<path d="M13.078 30.2569L13.5612 27.4101L11.4979 25.386C10.7275 24.6286 11.1584 23.3097 12.2162 23.153L15.076 22.7351L16.3558 20.1495C16.8389 19.1832 18.2231 19.1832 18.6933 20.1495L19.973 22.7351L22.8329 23.153C23.9037 23.3097 24.3346 24.6286 23.5511 25.386L21.4878 27.3971L21.971 30.2438C22.1538 31.3147 21.0308 32.1243 20.0775 31.615L17.518 30.27L14.9585 31.615C14.0183 32.1373 12.8952 31.3147 13.078 30.2569ZM18.1448 27.6582L18.9675 28.0892L18.8108 27.1751C18.7324 26.7572 18.8761 26.3132 19.1895 26.0128L19.8555 25.3599L18.9414 25.2293C18.5104 25.164 18.1448 24.9028 17.962 24.5111L17.5572 23.6753L17.1523 24.5111C16.9565 24.9028 16.5908 25.164 16.1729 25.2293L15.2588 25.3599L15.9248 26.0128C16.2382 26.3132 16.3688 26.7441 16.3035 27.1751L16.1468 28.0892L16.9695 27.6582C17.309 27.4493 17.753 27.4493 18.1448 27.6582Z" fill="#1866C2"/>
<path d="M34.455 31.628L31.8955 30.283L29.336 31.628C28.3828 32.1242 27.2597 31.3146 27.4425 30.2568L27.9257 27.41L25.8624 25.386C25.092 24.6286 25.5229 23.3096 26.5807 23.1529L29.4405 22.7351L30.7203 20.1494C31.2034 19.1831 32.5877 19.1831 33.0578 20.1494L34.3375 22.7351L37.1974 23.1529C38.2682 23.3096 38.6991 24.6286 37.9156 25.386L35.8523 27.397L36.3355 30.2438C36.5314 31.3146 35.4083 32.1373 34.455 31.628ZM29.5842 25.3598L30.2502 26.0128C30.5636 26.3131 30.6941 26.7441 30.6289 27.175L30.4721 28.0891L31.2948 27.6582C31.6735 27.4623 32.1306 27.4623 32.5093 27.6582L33.332 28.0891L33.1753 27.175C33.0969 26.7571 33.2406 26.3131 33.554 26.0128L34.22 25.3598L33.3059 25.2293C32.8749 25.164 32.5093 24.9028 32.3265 24.511L31.9086 23.6753L31.5038 24.511C31.3079 24.9028 30.9423 25.164 30.5244 25.2293L29.5842 25.3598Z" fill="#1866C2"/>
<path d="M42.016 30.2568L42.4991 27.4101L40.4359 25.399C39.6654 24.6416 40.0963 23.3227 41.1541 23.166L44.0139 22.7481L45.2937 20.1625C45.7769 19.1962 47.1611 19.1962 47.6312 20.1625L48.9109 22.7481L51.7708 23.166C52.8416 23.3227 53.2725 24.6416 52.489 25.399L50.4257 27.4101L50.9089 30.2568C51.0917 31.3277 49.9687 32.1373 49.0154 31.628L46.4559 30.283L43.8964 31.628C42.9562 32.1373 41.8331 31.3146 42.016 30.2568ZM47.0697 27.6582L47.8924 28.0891L47.7357 27.175C47.6573 26.7571 47.8009 26.3131 48.1144 26.0128L48.7803 25.3598L47.8662 25.2293C47.4353 25.164 47.0697 24.9028 46.8868 24.511L46.482 23.6753L46.0641 24.511C45.8683 24.9028 45.5026 25.164 45.0848 25.2293L44.1706 25.3598L44.8366 26.0128C45.15 26.3131 45.2806 26.7441 45.2153 27.175L45.0586 28.0891L45.8813 27.6582C46.2339 27.4492 46.691 27.4492 47.0697 27.6582Z" fill="#1866C2"/>
<path d="M52.8939 7.8352C53.9757 7.8352 54.8527 6.95822 54.8527 5.8764C54.8527 4.79459 53.9757 3.9176 52.8939 3.9176C51.812 3.9176 50.9351 4.79459 50.9351 5.8764C50.9351 6.95822 51.812 7.8352 52.8939 7.8352Z" fill="#1866C2"/>
<path d="M50.2821 52.2346C51.3639 52.2346 52.2409 51.3576 52.2409 50.2758C52.2409 49.194 51.3639 48.317 50.2821 48.317C49.2003 48.317 48.3233 49.194 48.3233 50.2758C48.3233 51.3576 49.2003 52.2346 50.2821 52.2346Z" fill="#1866C2"/>
<path d="M10.4532 5.22346C11.1744 5.22346 11.7591 4.6388 11.7591 3.91759C11.7591 3.19638 11.1744 2.61172 10.4532 2.61172C9.73199 2.61172 9.14734 3.19638 9.14734 3.91759C9.14734 4.6388 9.73199 5.22346 10.4532 5.22346Z" fill="#1866C2"/>
<path d="M32.6529 49.6229C33.3741 49.6229 33.9588 49.0382 33.9588 48.317C33.9588 47.5958 33.3741 47.0112 32.6529 47.0112C31.9317 47.0112 31.347 47.5958 31.347 48.317C31.347 49.0382 31.9317 49.6229 32.6529 49.6229Z" fill="#1866C2"/>
<path d="M9.14736 53.5405C9.86857 53.5405 10.4532 52.9558 10.4532 52.2346C10.4532 51.5134 9.86857 50.9288 9.14736 50.9288C8.42615 50.9288 7.84149 51.5134 7.84149 52.2346C7.84149 52.9558 8.42615 53.5405 9.14736 53.5405Z" fill="#1866C2"/>
<path d="M33.9588 2.61173C34.68 2.61173 35.2647 2.02708 35.2647 1.30587C35.2647 0.584656 34.68 0 33.9588 0C33.2376 0 32.653 0.584656 32.653 1.30587C32.653 2.02708 33.2376 2.61173 33.9588 2.61173Z" fill="#1866C2"/>
<path d="M62.6878 40.4818H1.31216C0.345815 40.4818 -0.294059 39.4632 0.149935 38.5883L6.37891 26.1173L0.136876 13.6463C-0.294059 12.7714 0.345815 11.7528 1.31216 11.7528H62.6878C63.6542 11.7528 64.2941 12.7714 63.8501 13.6463L57.6211 26.1173L63.8631 38.5883C64.2941 39.4632 63.6542 40.4818 62.6878 40.4818ZM3.42766 37.8701H60.5723L54.9832 26.7049C54.8004 26.3393 54.8004 25.9084 54.9832 25.5427L60.5723 14.3776H3.42766L9.01676 25.5427C9.19958 25.9084 9.19958 26.3393 9.01676 26.7049L3.42766 37.8701Z" fill="#1866C2"/>
</svg>
