<svg width="64" height="64" viewBox="0 0 64 64" fill="none" xmlns="http://www.w3.org/2000/svg">
<path d="M57.3334 13.3333C56.597 13.3333 56 12.7363 56 12C56 9.7944 54.2056 8 52 8C51.2636 8 50.6667 7.40293 50.6667 6.66667C50.6667 5.9304 51.2636 5.33333 52 5.33333C54.2056 5.33333 56 3.53893 56 1.33333C56 0.597067 56.597 0 57.3334 0C58.0698 0 58.6667 0.597067 58.6667 1.33333C58.6667 3.53893 60.4611 5.33333 62.6667 5.33333C63.4031 5.33333 64 5.9304 64 6.66667C64 7.40293 63.4031 8 62.6667 8C60.4611 8 58.6667 9.7944 58.6667 12C58.6667 12.7363 58.0698 13.3333 57.3334 13.3333ZM55.9959 6.66667C56.5023 7.04707 56.953 7.49773 57.3334 8.00413C57.7138 7.49773 58.1644 7.04693 58.6708 6.66667C58.1644 6.28627 57.7138 5.8356 57.3334 5.3292C56.953 5.8356 56.5023 6.28627 55.9959 6.66667Z" fill="#1866C2"/>
<path d="M6.66667 21.3333C5.93027 21.3333 5.33333 20.7363 5.33333 20C5.33333 17.7944 3.53893 16 1.33333 16C0.596933 16 0 15.4029 0 14.6667C0 13.9304 0.596933 13.3333 1.33333 13.3333C3.53893 13.3333 5.33333 11.5389 5.33333 9.33333C5.33333 8.59707 5.93027 8 6.66667 8C7.40307 8 8 8.59707 8 9.33333C8 11.5389 9.7944 13.3333 12 13.3333C12.7364 13.3333 13.3333 13.9304 13.3333 14.6667C13.3333 15.4029 12.7364 16 12 16C9.7944 16 8 17.7944 8 20C8 20.7363 7.40307 21.3333 6.66667 21.3333ZM5.3292 14.6667C5.8356 15.0471 6.28627 15.4977 6.66667 16.0041C7.04707 15.4977 7.49773 15.0469 8.00413 14.6667C7.49773 14.2863 7.04707 13.8356 6.66667 13.3292C6.28627 13.8356 5.8356 14.2863 5.3292 14.6667Z" fill="#1866C2"/>
<path d="M57.3333 40C58.0697 40 58.6667 39.4031 58.6667 38.6667C58.6667 37.9303 58.0697 37.3333 57.3333 37.3333C56.597 37.3333 56 37.9303 56 38.6667C56 39.4031 56.597 40 57.3333 40Z" fill="#1866C2"/>
<path d="M58.6666 21.3333C59.403 21.3333 60 20.7364 60 20C60 19.2636 59.403 18.6667 58.6666 18.6667C57.9303 18.6667 57.3333 19.2636 57.3333 20C57.3333 20.7364 57.9303 21.3333 58.6666 21.3333Z" fill="#1866C2"/>
<path d="M42.6666 5.33332C43.403 5.33332 44 4.73637 44 3.99999C44 3.26361 43.403 2.66666 42.6666 2.66666C41.9303 2.66666 41.3333 3.26361 41.3333 3.99999C41.3333 4.73637 41.9303 5.33332 42.6666 5.33332Z" fill="#1866C2"/>
<path d="M17.3333 4.00001C18.0697 4.00001 18.6667 3.40306 18.6667 2.66668C18.6667 1.9303 18.0697 1.33334 17.3333 1.33334C16.597 1.33334 16 1.9303 16 2.66668C16 3.40306 16.597 4.00001 17.3333 4.00001Z" fill="#1866C2"/>
<path d="M4.00002 37.3333C4.7364 37.3333 5.33335 36.7364 5.33335 36C5.33335 35.2636 4.7364 34.6667 4.00002 34.6667C3.26364 34.6667 2.66669 35.2636 2.66669 36C2.66669 36.7364 3.26364 37.3333 4.00002 37.3333Z" fill="#1866C2"/>
<path d="M49.3333 64H14.6666C13.9302 64 13.3333 63.4029 13.3333 62.6667V28.5849C13.3333 27.8487 13.9302 27.2516 14.6666 27.2516C15.403 27.2516 16 27.8487 16 28.5849V61.3333H48V28.5849C48 27.8487 48.5969 27.2516 49.3333 27.2516C50.0697 27.2516 50.6666 27.8487 50.6666 28.5849V62.6667C50.6666 63.4029 50.0697 64 49.3333 64Z" fill="#1866C2"/>
<path d="M3.96283 29.9024C3.12643 29.4291 3.05296 28.2557 3.81416 27.6791L31.1948 6.93719C31.671 6.57652 32.329 6.57652 32.8051 6.93719L60.1858 27.6789C60.9487 28.2568 60.8714 29.43 60.0371 29.9023C56.6875 31.7969 52.6572 31.8533 49.256 30.0527L32 20.9171L14.7438 30.0528C11.3816 31.8327 7.35123 31.8191 3.96283 29.9024ZM32.6239 18.2301L50.5039 27.696C52.448 28.7252 54.662 28.9588 56.7247 28.4025L32 9.67265L7.27536 28.4025C9.33776 28.9587 11.5518 28.7253 13.496 27.696L31.3762 18.2301C31.7643 18.0247 32.2312 18.0223 32.6239 18.2301Z" fill="#1866C2"/>
<path d="M40 64H24C23.2636 64 22.6667 63.4029 22.6667 62.6667V44C22.6667 43.2637 23.2636 42.6667 24 42.6667H40C40.7364 42.6667 41.3334 43.2637 41.3334 44V62.6667C41.3334 63.4029 40.7364 64 40 64ZM25.3334 61.3333H38.6667V45.3333H25.3334V61.3333Z" fill="#1866C2"/>
<path d="M32 64C31.2636 64 30.6667 63.4029 30.6667 62.6667V44C30.6667 43.2637 31.2636 42.6667 32 42.6667C32.7364 42.6667 33.3334 43.2637 33.3334 44V62.6667C33.3334 63.4029 32.7364 64 32 64Z" fill="#1866C2"/>
<path d="M29.3334 37.3333H24C23.2636 37.3333 22.6667 36.7363 22.6667 36V30.6667C22.6667 29.9304 23.2636 29.3333 24 29.3333H29.3334C30.0698 29.3333 30.6667 29.9304 30.6667 30.6667V36C30.6667 36.7363 30.0698 37.3333 29.3334 37.3333ZM25.3334 34.6667H28V32H25.3334V34.6667Z" fill="#1866C2"/>
<path d="M34.6667 37.3333H29.3333C28.5969 37.3333 28 36.7363 28 36V30.6667C28 29.9304 28.5969 29.3333 29.3333 29.3333H34.6667C35.4031 29.3333 36 29.9304 36 30.6667V36C36 36.7363 35.4031 37.3333 34.6667 37.3333ZM30.6667 34.6667H33.3333V32H30.6667V34.6667Z" fill="#1866C2"/>
<path d="M40 37.3333H34.6666C33.9302 37.3333 33.3333 36.7363 33.3333 36V30.6667C33.3333 29.9304 33.9302 29.3333 34.6666 29.3333H40C40.7364 29.3333 41.3333 29.9304 41.3333 30.6667V36C41.3333 36.7363 40.7364 37.3333 40 37.3333ZM36 34.6667H38.6666V32H36V34.6667Z" fill="#1866C2"/>
<path d="M57.3333 64H49.3333C48.5969 64 48 63.4029 48 62.6667V57.3333C48 56.5971 48.5969 56 49.3333 56H57.3333C58.0697 56 58.6667 56.5971 58.6667 57.3333V62.6667C58.6667 63.4029 58.0697 64 57.3333 64ZM50.6667 61.3333H56V58.6667H50.6667V61.3333Z" fill="#1866C2"/>
<path d="M62.6667 64H57.3333C56.5969 64 56 63.4029 56 62.6667V57.3333C56 56.5971 56.5969 56 57.3333 56H62.6667C63.4031 56 64 56.5971 64 57.3333V62.6667C64 63.4029 63.4031 64 62.6667 64ZM58.6667 61.3333H61.3333V58.6667H58.6667V61.3333Z" fill="#1866C2"/>
<path d="M62.6666 58.6667H54.6666C53.9302 58.6667 53.3333 58.0696 53.3333 57.3333V52C53.3333 51.2637 53.9302 50.6667 54.6666 50.6667H62.6666C63.403 50.6667 64 51.2637 64 52V57.3333C64 58.0696 63.403 58.6667 62.6666 58.6667ZM56 56H61.3333V53.3333H56V56Z" fill="#1866C2"/>
<path d="M60 53.3333H53.3333C52.5969 53.3333 52 52.7363 52 52V46.6667C52 45.9304 52.5969 45.3333 53.3333 45.3333H60C60.7364 45.3333 61.3333 45.9304 61.3333 46.6667V52C61.3333 52.7363 60.7364 53.3333 60 53.3333ZM54.6667 50.6667H58.6667V48H54.6667V50.6667Z" fill="#1866C2"/>
<path d="M54.6667 58.6667H49.3333C48.5969 58.6667 48 58.0696 48 57.3333V52C48 51.2637 48.5969 50.6667 49.3333 50.6667H54.6667C55.4031 50.6667 56 51.2637 56 52V57.3333C56 58.0696 55.4031 58.6667 54.6667 58.6667ZM50.6667 56H53.3333V53.3333H50.6667V56Z" fill="#1866C2"/>
<path d="M14.6666 64H6.66665C5.93025 64 5.33331 63.4029 5.33331 62.6667V57.3333C5.33331 56.5971 5.93025 56 6.66665 56H14.6666C15.403 56 16 56.5971 16 57.3333V62.6667C16 63.4029 15.403 64 14.6666 64ZM7.99998 61.3333H13.3333V58.6667H7.99998V61.3333Z" fill="#1866C2"/>
<path d="M6.66667 64H1.33333C0.596933 64 0 63.4029 0 62.6667V57.3333C0 56.5971 0.596933 56 1.33333 56H6.66667C7.40307 56 8 56.5971 8 57.3333V62.6667C8 63.4029 7.40307 64 6.66667 64ZM2.66667 61.3333H5.33333V58.6667H2.66667V61.3333Z" fill="#1866C2"/>
<path d="M9.33333 58.6667H1.33333C0.596933 58.6667 0 58.0696 0 57.3333V52C0 51.2637 0.596933 50.6667 1.33333 50.6667H9.33333C10.0697 50.6667 10.6667 51.2637 10.6667 52V57.3333C10.6667 58.0696 10.0697 58.6667 9.33333 58.6667ZM2.66667 56H8V53.3333H2.66667V56Z" fill="#1866C2"/>
<path d="M10.6667 53.3333H4.00002C3.26362 53.3333 2.66669 52.7363 2.66669 52V46.6667C2.66669 45.9304 3.26362 45.3333 4.00002 45.3333H10.6667C11.4031 45.3333 12 45.9304 12 46.6667V52C12 52.7363 11.4031 53.3333 10.6667 53.3333ZM5.33335 50.6667H9.33335V48H5.33335V50.6667Z" fill="#1866C2"/>
<path d="M14.6667 58.6667H9.33333C8.59693 58.6667 8 58.0696 8 57.3333V52C8 51.2637 8.59693 50.6667 9.33333 50.6667H14.6667C15.4031 50.6667 16 51.2637 16 52V57.3333C16 58.0696 15.4031 58.6667 14.6667 58.6667ZM10.6667 56H13.3333V53.3333H10.6667V56Z" fill="#1866C2"/>
</svg>
