<svg width="64" height="64" viewBox="0 0 64 64" fill="none" xmlns="http://www.w3.org/2000/svg">
<path d="M57.3334 13.3333C56.597 13.3333 56 12.7363 56 12C56 9.7944 54.2056 8 52 8C51.2636 8 50.6667 7.40293 50.6667 6.66667C50.6667 5.9304 51.2636 5.33333 52 5.33333C54.2056 5.33333 56 3.53893 56 1.33333C56 0.597067 56.597 0 57.3334 0C58.0698 0 58.6667 0.597067 58.6667 1.33333C58.6667 3.53893 60.4611 5.33333 62.6667 5.33333C63.4031 5.33333 64 5.9304 64 6.66667C64 7.40293 63.4031 8 62.6667 8C60.4611 8 58.6667 9.7944 58.6667 12C58.6667 12.7363 58.0698 13.3333 57.3334 13.3333ZM55.9959 6.66667C56.5023 7.04707 56.953 7.49773 57.3334 8.00413C57.7138 7.49773 58.1644 7.04693 58.6708 6.66667C58.1644 6.28627 57.7138 5.8356 57.3334 5.3292C56.953 5.8356 56.5023 6.28627 55.9959 6.66667Z" fill="#1866C2"/>
<path d="M18 24C13.2212 24 9.33331 20.1121 9.33331 15.3333V7.65188C9.33331 6.91561 9.93025 6.31854 10.6666 6.31854C11.403 6.31854 12 6.91561 12 7.65188V15.3333C12 18.6417 14.6916 21.3333 18 21.3333C21.3084 21.3333 24 18.6417 24 15.3333V8.00001C24 7.26374 24.5969 6.66668 25.3333 6.66668C26.0697 6.66668 26.6666 7.26374 26.6666 8.00001V15.3333C26.6666 20.1121 22.7788 24 18 24Z" fill="#1866C2"/>
<path d="M34.6667 44H1.48147C0.745066 44 0.148132 43.4029 0.148132 42.6667V36.4444C0.148132 29.9724 5.45107 24.4415 12 23.7716V20.9904C12 20.2541 12.5969 19.6571 13.3333 19.6571C14.0697 19.6571 14.6667 20.2541 14.6667 20.9904V25.0371C14.6667 25.7733 14.0697 26.3704 13.3333 26.3704C7.63173 26.3704 2.8148 30.9839 2.8148 36.4445V41.3333H33.3333V36.4444C33.3333 31.0779 28.3489 26.3703 22.6667 26.3703C21.9303 26.3703 21.3333 25.7732 21.3333 25.0369V20.9903C21.3333 20.254 21.9303 19.6569 22.6667 19.6569C23.4031 19.6569 24 20.254 24 20.9903V23.7733C30.4083 24.4407 36 29.7671 36 36.4444V42.6667C36 43.4029 35.4031 44 34.6667 44Z" fill="#1866C2"/>
<path d="M21.4223 33.3629L17.2742 30.2519C16.6035 29.7488 16.5583 28.7577 17.1804 28.1957L21.7731 24.0476C22.3195 23.5541 23.1627 23.5969 23.6563 24.1433C24.1499 24.6899 24.107 25.5329 23.5606 26.0265L20.1691 29.0899L21.9332 30.4129L25.7971 25.0313C26.2267 24.4331 27.0598 24.2965 27.6578 24.7259C28.2559 25.1553 28.3927 25.9884 27.9632 26.5865L23.3054 33.074C23.0963 33.3652 22.7788 33.56 22.4246 33.6143C22.082 33.6671 21.7176 33.5845 21.4223 33.3629Z" fill="#1866C2"/>
<path d="M12.8428 33.0739L8.15786 26.5488C7.7284 25.9507 7.8652 25.1176 8.46333 24.6882C9.06146 24.2586 9.89453 24.3955 10.324 24.9936L14.2149 30.413L15.958 29.1056L12.4552 26.0406C11.9009 25.5556 11.8448 24.7134 12.3297 24.1592C12.8148 23.605 13.6571 23.549 14.2112 24.0339L18.9519 28.182C19.59 28.7402 19.5507 29.7443 18.8739 30.252L14.7257 33.3631C14.1289 33.8108 13.2788 33.6809 12.8428 33.0739Z" fill="#1866C2"/>
<path d="M13.5337 43.9411C12.83 43.7245 12.4349 42.9784 12.6515 42.2747L16.7996 28.7932C17.0161 28.0895 17.7621 27.6939 18.4661 27.9109C19.1699 28.1275 19.5649 28.8736 19.3484 29.5773L15.2003 43.0587C14.9835 43.7633 14.2368 44.1575 13.5337 43.9411Z" fill="#1866C2"/>
<path d="M20.9478 43.0587L16.7997 29.5772C16.583 28.8735 16.9781 28.1273 17.682 27.9108C18.3857 27.6939 19.132 28.0892 19.3485 28.7931L23.4966 42.2745C23.7133 42.9783 23.3182 43.7244 22.6144 43.9409C21.915 44.1564 21.1657 43.7671 20.9478 43.0587Z" fill="#1866C2"/>
<path d="M45.3333 12C46.0697 12 46.6667 11.4031 46.6667 10.6667C46.6667 9.9303 46.0697 9.33334 45.3333 9.33334C44.597 9.33334 44 9.9303 44 10.6667C44 11.4031 44.597 12 45.3333 12Z" fill="#1866C2"/>
<path d="M30.6666 4.00001C31.403 4.00001 32 3.40306 32 2.66668C32 1.9303 31.403 1.33334 30.6666 1.33334C29.9303 1.33334 29.3333 1.9303 29.3333 2.66668C29.3333 3.40306 29.9303 4.00001 30.6666 4.00001Z" fill="#1866C2"/>
<path d="M2.66665 18.6667C3.40303 18.6667 3.99998 18.0697 3.99998 17.3333C3.99998 16.597 3.40303 16 2.66665 16C1.93027 16 1.33331 16.597 1.33331 17.3333C1.33331 18.0697 1.93027 18.6667 2.66665 18.6667Z" fill="#1866C2"/>
<path d="M25.3333 9.33334H21.3333C20.5969 9.33334 20 8.73628 20 8.00001V4.66668C20 2.82868 21.4953 1.33334 23.3333 1.33334C25.1713 1.33334 26.6667 2.82868 26.6667 4.66668V8.00001C26.6667 8.73628 26.0697 9.33334 25.3333 9.33334ZM22.6667 6.66668H24V4.66668C24 4.29908 23.7009 4.00001 23.3333 4.00001C22.9657 4.00001 22.6667 4.29908 22.6667 4.66668V6.66668Z" fill="#1866C2"/>
<path d="M21.3333 9.33333H12.6889C8.63305 9.33333 5.33331 6.0336 5.33331 1.97773V1.33333C5.33331 0.597067 5.93025 0 6.66665 0H15.311C19.3669 0 22.6666 3.2996 22.6666 7.35547V8C22.6666 8.73627 22.0697 9.33333 21.3333 9.33333ZM8.05038 2.66667C8.38465 4.92667 10.3373 6.66667 12.6888 6.66667H19.9494C19.6152 4.4068 17.6624 2.66667 15.3109 2.66667H8.05038Z" fill="#1866C2"/>
<path d="M62.6667 50.6667H1.33333C0.596933 50.6667 0 50.0696 0 49.3333V42.6667C0 41.9304 0.596933 41.3333 1.33333 41.3333H62.6667C63.4031 41.3333 64 41.9304 64 42.6667V49.3333C64 50.0696 63.4031 50.6667 62.6667 50.6667ZM2.66667 48H61.3333V44H2.66667V48Z" fill="#1866C2"/>
<path d="M57.3333 64H6.66665C5.93025 64 5.33331 63.4029 5.33331 62.6667V49.3333C5.33331 48.5971 5.93025 48 6.66665 48H57.3333C58.0697 48 58.6666 48.5971 58.6666 49.3333V62.6667C58.6666 63.4029 58.0697 64 57.3333 64ZM7.99998 61.3333H56V50.6667H7.99998V61.3333Z" fill="#1866C2"/>
<path d="M52 44H45.3333C44.5969 44 44 43.4029 44 42.6667V33.3333C44 30.7601 46.0935 28.6667 48.6667 28.6667C51.2399 28.6667 53.3333 30.7601 53.3333 33.3333V42.6667C53.3333 43.4029 52.7364 44 52 44ZM46.6667 41.3333H50.6667V33.3333C50.6667 32.2305 49.7695 31.3333 48.6667 31.3333C47.5639 31.3333 46.6667 32.2305 46.6667 33.3333V41.3333Z" fill="#1866C2"/>
<path d="M62.6666 38.6667H52C51.2636 38.6667 50.6666 38.0696 50.6666 37.3333C50.6666 36.5971 51.2636 36 52 36H61.3333V18.6667H36V36H45.3333C46.0697 36 46.6666 36.5971 46.6666 37.3333C46.6666 38.0696 46.0697 38.6667 45.3333 38.6667H34.6666C33.9302 38.6667 33.3333 38.0696 33.3333 37.3333V17.3333C33.3333 16.5971 33.9302 16 34.6666 16H62.6666C63.403 16 64 16.5971 64 17.3333V37.3333C64 38.0696 63.403 38.6667 62.6666 38.6667Z" fill="#1866C2"/>
<path d="M57.3333 58.6667H6.66665C5.93025 58.6667 5.33331 58.0696 5.33331 57.3333C5.33331 56.5971 5.93025 56 6.66665 56H57.3333C58.0697 56 58.6666 56.5971 58.6666 57.3333C58.6666 58.0696 58.0697 58.6667 57.3333 58.6667Z" fill="#1866C2"/>
</svg>
