<svg width="64" height="60" viewBox="0 0 64 60" fill="none" xmlns="http://www.w3.org/2000/svg">
<path d="M57.3333 37.3333C56.5969 37.3333 56 36.7363 56 36C56 33.7944 54.2056 32 52 32C51.2636 32 50.6667 31.4029 50.6667 30.6667C50.6667 29.9304 51.2636 29.3333 52 29.3333C54.2056 29.3333 56 27.5389 56 25.3333C56 24.5971 56.5969 24 57.3333 24C58.0697 24 58.6667 24.5971 58.6667 25.3333C58.6667 27.5389 60.4611 29.3333 62.6667 29.3333C63.4031 29.3333 64 29.9304 64 30.6667C64 31.4029 63.4031 32 62.6667 32C60.4611 32 58.6667 33.7944 58.6667 36C58.6667 36.7364 58.0697 37.3333 57.3333 37.3333ZM55.9959 30.6667C56.5023 31.0471 56.9529 31.4977 57.3333 32.0041C57.7137 31.4977 58.1644 31.0469 58.6708 30.6667C58.1644 30.2863 57.7137 29.8356 57.3333 29.3292C56.9529 29.8356 56.5023 30.2864 55.9959 30.6667Z" fill="#1866C2"/>
<path d="M6.66667 28C5.93027 28 5.33333 27.4029 5.33333 26.6667C5.33333 24.4611 3.53893 22.6667 1.33333 22.6667C0.596933 22.6667 0 22.0696 0 21.3333C0 20.5971 0.596933 20 1.33333 20C3.53893 20 5.33333 18.2056 5.33333 16C5.33333 15.2637 5.93027 14.6667 6.66667 14.6667C7.40307 14.6667 8 15.2637 8 16C8 18.2056 9.7944 20 12 20C12.7364 20 13.3333 20.5971 13.3333 21.3333C13.3333 22.0696 12.7364 22.6667 12 22.6667C9.7944 22.6667 8 24.4611 8 26.6667C8 27.4031 7.40307 28 6.66667 28ZM5.3292 21.3333C5.8356 21.7137 6.28627 22.1644 6.66667 22.6708C7.04707 22.1644 7.49773 21.7136 8.00413 21.3333C7.49773 20.9529 7.04707 20.5023 6.66667 19.9959C6.28627 20.5023 5.8356 20.9531 5.3292 21.3333Z" fill="#1866C2"/>
<path d="M48 2.66667C48.7364 2.66667 49.3333 2.06971 49.3333 1.33333C49.3333 0.596954 48.7364 0 48 0C47.2636 0 46.6667 0.596954 46.6667 1.33333C46.6667 2.06971 47.2636 2.66667 48 2.66667Z" fill="#1866C2"/>
<path d="M58.6667 16C59.4031 16 60 15.4031 60 14.6667C60 13.9303 59.4031 13.3333 58.6667 13.3333C57.9303 13.3333 57.3333 13.9303 57.3333 14.6667C57.3333 15.4031 57.9303 16 58.6667 16Z" fill="#1866C2"/>
<path d="M12 36C12.7364 36 13.3333 35.4031 13.3333 34.6667C13.3333 33.9303 12.7364 33.3333 12 33.3333C11.2636 33.3333 10.6667 33.9303 10.6667 34.6667C10.6667 35.4031 11.2636 36 12 36Z" fill="#1866C2"/>
<path d="M10.6667 5.33332C11.4031 5.33332 12 4.73637 12 3.99999C12 3.26361 11.4031 2.66666 10.6667 2.66666C9.9303 2.66666 9.33334 3.26361 9.33334 3.99999C9.33334 4.73637 9.9303 5.33332 10.6667 5.33332Z" fill="#1866C2"/>
<path d="M53.3333 54.6667H10.6667C9.93028 54.6667 9.33334 54.0696 9.33334 53.3333V41.3333C9.33334 40.5971 9.93028 40 10.6667 40H53.3333C54.0697 40 54.6667 40.5971 54.6667 41.3333V53.3333C54.6667 54.0697 54.0697 54.6667 53.3333 54.6667ZM12 52H52V42.6667H12V52Z" fill="#1866C2"/>
<path d="M62.6667 60H46.6667C45.9303 60 45.3333 59.4029 45.3333 58.6667V53.3333C45.3333 52.5971 45.9303 52 46.6667 52C47.4031 52 48 52.5971 48 53.3333V57.3333H60L57.6 54.1333C57.2444 53.6592 57.2444 53.0075 57.6 52.5333L60 49.3333H53.3333C52.5969 49.3333 52 48.7363 52 48C52 47.2637 52.5969 46.6667 53.3333 46.6667H62.6667C63.1717 46.6667 63.6333 46.952 63.8592 47.4037C64.0851 47.8555 64.0363 48.3959 63.7333 48.8L60.3333 53.3333L63.7333 57.8667C64.0363 58.2707 64.0851 58.8112 63.8592 59.2629C63.6333 59.7147 63.1717 60 62.6667 60Z" fill="#1866C2"/>
<path d="M45.6255 59.4996C45.1655 58.9245 45.2587 58.0856 45.8337 57.6255L52.5004 52.2921C53.0755 51.8323 53.9145 51.9253 54.3745 52.5004C54.8345 53.0755 54.7413 53.9144 54.1663 54.3745L47.4996 59.7079C46.9272 60.1657 46.0876 60.0772 45.6255 59.4996Z" fill="#1866C2"/>
<path d="M17.3333 60H1.33333C0.828261 60 0.366661 59.7147 0.140794 59.2629C-0.0850722 58.8112 -0.0362722 58.2707 0.266661 57.8667L3.66666 53.3333L0.266661 48.8C-0.0362722 48.396 -0.0850722 47.8555 0.140794 47.4037C0.366661 46.952 0.828261 46.6667 1.33333 46.6667H10.6667C11.4031 46.6667 12 47.2637 12 48C12 48.7363 11.4031 49.3333 10.6667 49.3333H3.99999L6.39999 52.5333C6.75559 53.0075 6.75559 53.6592 6.39999 54.1333L3.99999 57.3333H16V53.3333C16 52.5971 16.5969 52 17.3333 52C18.0697 52 18.6667 52.5971 18.6667 53.3333V58.6667C18.6667 59.4031 18.0697 60 17.3333 60Z" fill="#1866C2"/>
<path d="M16.5004 59.7079L9.83374 54.3745C9.25867 53.9145 9.16547 53.0755 9.62547 52.5004C10.0855 51.9253 10.9245 51.8319 11.4996 52.2922L18.1663 57.6255C18.7413 58.0855 18.8345 58.9246 18.3745 59.4996C17.9132 60.0763 17.0735 60.1665 16.5004 59.7079Z" fill="#1866C2"/>
<path d="M37.3333 42.6667H26.6667C25.9303 42.6667 25.3333 42.0696 25.3333 41.3333V30.8816C19.8659 28.3773 16 22.8313 16 16.3329C16 9.62214 20.1475 3.78134 26.1816 1.42467C26.5921 1.26427 27.0549 1.31707 27.4187 1.56561C27.7824 1.81414 28 2.22614 28 2.66667V16.3329H36V2.66667C36 2.22614 36.2176 1.81401 36.5813 1.56561C36.9451 1.31721 37.4079 1.26414 37.8184 1.42467C43.8496 3.78014 48 9.6188 48 16.3329C48 22.8323 44.1332 28.3779 38.6667 30.8816V41.3333C38.6667 42.0697 38.0697 42.6667 37.3333 42.6667ZM28 40H36V29.9992C36 29.45 36.3367 28.9571 36.8483 28.7573C42.0028 26.7441 45.3333 21.8673 45.3333 16.3329C45.3333 11.4801 42.7723 7.1328 38.6667 4.77854V17.6663C38.6667 18.4025 38.0697 18.9996 37.3333 18.9996H26.6667C25.9303 18.9996 25.3333 18.4025 25.3333 17.6663V4.77854C21.2277 7.1328 18.6667 11.4803 18.6667 16.3329C18.6667 21.8673 21.9972 26.7441 27.1517 28.7573C27.6633 28.9571 28 29.45 28 29.9992V40Z" fill="#1866C2"/>
</svg>
